<svg width="82" height="68" viewBox="0 0 82 68" fill="none" xmlns="http://www.w3.org/2000/svg">
<path d="M56.9048 65.2675C56.7996 65.2772 56.6224 65.2925 56.4369 65.3465C56.0866 65.4462 55.7501 65.5818 55.3984 65.676C54.9747 65.7895 54.5621 65.946 54.1343 66.0374C53.784 66.1121 53.4752 66.2561 53.1789 66.4126C52.9075 66.4541 52.6043 66.4264 52.398 66.5552C52.1903 66.684 51.9716 66.5635 51.7708 66.7131C51.6157 66.8266 51.354 66.7947 51.1394 66.8266C51.1242 66.8294 51.1048 66.8211 51.091 66.8266C50.6936 66.9997 50.2741 67.0786 49.8462 67.1215C49.6579 67.3513 49.3339 67.0869 49.1442 67.314C48.8161 67.3472 48.4879 67.4026 48.1598 67.4053C47.8427 67.4081 47.545 67.476 47.2487 67.5715C47.2197 67.5812 47.1947 67.6033 47.1657 67.6061C46.8209 67.6407 46.4761 67.6684 46.1328 67.7072C45.9334 67.7293 45.7202 67.7349 45.5415 67.811C45.1982 67.9578 44.8493 67.8678 44.5045 67.9038C44.2248 67.9329 43.9313 67.8138 43.6613 67.9924C43.6184 68.0201 43.5173 67.9647 43.4453 67.9426C43.2874 67.8941 43.2874 67.8927 43.0742 67.9938C42.9648 67.9606 42.8638 67.908 42.7613 67.9052C42.3542 67.8955 41.9472 67.8913 41.5401 67.9052C41.3407 67.9121 41.1427 67.9966 40.9461 67.9924C40.4864 67.9799 40.0364 67.8567 39.5698 67.8941C39.4397 67.9052 39.3054 67.8318 39.1711 67.8041C39.0382 67.7764 38.9052 67.757 38.7322 67.728C38.62 67.7916 38.4705 67.8553 38.2877 67.7736C38.1922 67.7307 38.08 67.7141 37.9734 67.7086C37.3517 67.6712 36.7259 67.6795 36.1111 67.5937C35.7802 67.5466 35.4548 67.5244 35.1239 67.5078C34.9578 67.4995 34.7653 67.4884 34.6338 67.404C34.4635 67.2932 34.2627 67.3873 34.1395 67.3029C33.9816 67.1963 33.8307 67.253 33.6826 67.2157C33.0886 67.0647 32.4683 67.0606 31.8798 66.8543C31.6431 66.7712 31.3828 66.738 31.1363 66.6438C30.9106 66.5566 30.6351 66.6037 30.4025 66.5275C29.7988 66.3309 29.1425 66.3185 28.5776 65.9806C28.3284 65.8311 28.0168 65.8158 27.7413 65.7715C27.1279 65.6732 26.5741 65.442 26.0355 65.1623C25.5786 64.9242 25.0898 64.7733 24.6135 64.5877C24.3172 64.4714 24.0209 64.3759 23.7454 64.2028C23.5765 64.0976 23.3729 64.0214 23.1542 63.9771C22.8523 63.9162 22.5754 63.732 22.2916 63.5922C21.8984 63.3997 21.5038 63.2128 21.1216 63.001C20.9721 62.9179 20.8156 62.8694 20.6647 62.8071C20.4612 62.7227 20.2521 62.6188 20.0707 62.4624C19.8547 62.2768 19.5903 62.1412 19.3341 62.0082C18.9741 61.8199 18.6695 61.561 18.3469 61.3215C17.962 61.0376 17.5895 60.7358 17.1894 60.4713C16.8156 60.2235 16.4126 59.9937 16.1925 59.5658C16.1551 59.4938 16.0513 59.4564 15.9779 59.4038C15.7148 59.2141 15.4503 59.0245 15.1887 58.8334C15.1499 58.8043 15.1167 58.7669 15.0848 58.7309C14.7857 58.3751 14.459 58.0511 14.0602 57.8046C14.0464 57.7963 14.0325 57.7839 14.0256 57.77C13.865 57.3796 13.4787 57.2453 13.1769 57.0126C13.0564 56.9185 12.9816 56.7676 12.8736 56.654C12.7089 56.481 12.5732 56.2885 12.3932 56.1224C12.0429 55.7984 11.712 55.4425 11.4323 55.0562C11.3271 54.9108 11.1567 54.879 11.0764 54.7281C10.992 54.5675 10.9075 54.4013 10.7981 54.2587C10.6901 54.1175 10.5461 54.0053 10.4229 53.8752C10.0698 53.5027 9.80263 53.0624 9.5714 52.6152C9.32633 52.1417 9.04249 51.6931 8.7628 51.2431C8.59665 50.9772 8.49281 50.6962 8.46927 50.3805C8.07051 49.9374 7.82405 49.3919 7.56514 48.8782C7.40452 48.9267 7.25083 48.9987 7.09022 49.018C6.661 49.0734 6.26086 49.252 5.8164 49.2562C5.35257 49.2617 4.93581 49.0845 4.49412 49.0139C4.25736 48.9765 4.02613 48.8921 3.79906 48.8104C3.47645 48.6941 3.20369 48.4781 2.96 48.2524C2.60832 47.9284 2.27048 47.5767 1.9991 47.1862C1.81634 46.9232 1.63772 46.631 1.6308 46.2641C1.62526 45.9969 1.54219 45.72 1.44111 45.468C1.25835 45.0124 1.38573 44.5888 1.50342 44.154C1.5768 43.8868 1.61972 43.6112 1.68895 43.2789C1.97002 42.6697 2.39094 42.084 3.01816 41.6382C2.96416 41.4028 2.70524 41.3599 2.54324 41.2478C2.2331 41.0331 2.00187 40.7507 1.74572 40.489C1.61972 40.3616 1.56019 40.1719 1.44527 40.0321C1.17804 39.7067 1.17943 39.2941 1.0562 38.9216C0.970353 38.66 1.00358 38.3706 0.865125 38.1214C0.844356 38.084 0.844356 38.0161 0.865125 37.9774C1.03543 37.6506 0.902509 37.2892 0.991122 36.9555C1.07281 36.6482 1.19743 36.3491 1.24035 36.0362C1.26389 35.8645 1.38573 35.7994 1.45357 35.6817C1.96587 34.7928 2.7717 34.275 3.71322 33.9454C3.92783 33.8707 4.17152 33.8776 4.3889 33.8056C4.73089 33.6907 5.07703 33.7128 5.42457 33.7156C5.54641 33.7156 5.65995 33.7281 5.78871 33.7779C5.94517 33.8402 6.15286 33.7696 6.33978 33.7571C6.42839 33.7516 6.55439 33.7045 6.59731 33.7461C6.75238 33.8956 6.95869 33.7239 7.09576 33.8458C7.24391 33.9773 7.40868 33.8568 7.6039 33.9496C7.6039 33.8153 7.59698 33.7239 7.6039 33.6325C7.63298 33.3196 7.62606 32.9956 7.71882 32.7021C7.76175 32.565 7.79221 32.4349 7.79636 32.2978C7.8019 32.1095 7.80882 31.9323 7.88636 31.7481C7.95559 31.5847 7.83098 31.366 7.99436 31.2067C7.94036 30.9326 8.00128 30.6487 8.10928 30.4258C8.23943 30.1572 8.14112 29.8789 8.26989 29.6103C8.38481 29.3708 8.31143 29.0468 8.3945 28.7837C8.51358 28.4029 8.48312 27.9959 8.65065 27.6207C8.74896 27.4033 8.73926 27.1361 8.77526 26.891C8.80434 26.6888 8.71157 26.4715 8.83618 26.2818C8.94418 26.1184 8.77526 25.8941 8.96634 25.7459C8.99818 25.721 8.98018 25.6199 8.9691 25.5562C8.89849 25.1215 9.04249 24.702 9.09095 24.281C9.12556 23.9847 9.14633 23.6884 9.16987 23.3907C9.17541 23.3201 9.22802 23.2537 9.26125 23.1775C9.23218 23.1028 9.16433 23.0155 9.17125 22.9352C9.2031 22.5586 9.07156 22.1709 9.25571 21.7999C9.30141 21.7085 9.25987 21.5756 9.26264 21.462C9.29448 20.4983 9.30417 19.5347 9.37063 18.5738C9.39694 18.1958 9.46894 17.8067 9.58525 17.444C9.63232 17.2972 9.48833 17.2377 9.55063 17.1213C9.59909 17.03 9.64478 16.9233 9.64755 16.8223C9.66971 16.1369 9.80955 15.4765 10.0255 14.8285C10.0449 14.7703 10.0408 14.7025 10.0408 14.6402C10.0422 14.4283 9.98954 14.1985 10.056 14.0102C10.1266 13.8066 10.0698 13.5768 10.1571 13.4203C10.2609 13.2348 10.1488 12.998 10.3357 12.8568C10.2817 12.4414 10.5558 12.0787 10.5309 11.6675C10.7358 11.4362 10.5738 11.1275 10.7095 10.8616C10.8231 10.6401 10.7608 10.3355 10.8314 10.0821C10.9186 9.77058 11.028 9.46735 11.028 9.20982C11.2052 8.80552 11.3797 8.46907 11.5001 8.11323C11.604 7.80585 11.7535 7.53309 11.9224 7.26171C12.0415 7.07064 12.173 6.88926 12.245 6.66218C12.3946 6.19004 12.6881 5.77743 13.0121 5.42575C13.3361 5.07406 13.5313 4.65177 13.8152 4.28208C14.1488 3.84732 14.4341 3.38072 14.9214 3.08857C15.0433 3.01518 15.1374 2.89057 15.2344 2.78119C15.6123 2.35197 16.1025 2.07367 16.5774 1.77598C17.0288 1.49353 17.5051 1.25676 17.9509 0.961844C18.2084 0.79154 18.5227 0.660004 18.826 0.615698C19.1929 0.560314 19.5376 0.424625 19.9129 0.387241C20.2646 0.352626 20.6342 0.276474 20.9652 0.113093C20.9776 0.10617 20.997 0.113093 21.0136 0.113093C21.7018 0.118631 22.3816 -0.0544417 23.0725 0.0175567C23.2553 0.0369409 23.4353 0.0923244 23.618 0.110324C23.7952 0.126939 23.9877 0.0743247 24.1511 0.12417C24.3352 0.180938 24.5305 0.162938 24.6966 0.221091C25.256 0.417702 25.85 0.47447 26.4093 0.680773C26.6696 0.77631 26.9659 0.837232 27.2512 0.888461C27.6264 0.954921 27.9282 1.16676 28.2218 1.36891C28.4322 1.51291 28.6635 1.62229 28.8822 1.65968C29.3599 1.73998 29.7296 2.00167 30.1007 2.26059C30.5686 2.58735 30.9909 2.98057 31.4949 3.25887C31.5628 3.29626 31.6126 3.36964 31.6694 3.42918C32.0418 3.81963 32.442 4.1727 32.8947 4.47315C33.1343 4.63238 33.3517 4.85391 33.5109 5.09345C33.6646 5.32329 33.8501 5.51159 34.0412 5.6999C34.5023 6.15404 34.9425 6.62203 35.2541 7.20079C35.3565 7.39048 35.5268 7.54278 35.6611 7.71724C35.7359 7.81416 35.8107 7.91385 35.8675 8.02185C36.0848 8.42892 36.3188 8.82491 36.6276 9.17244C36.6982 9.25136 36.7744 9.34413 36.7965 9.44243C36.9184 9.96857 37.3143 10.3355 37.5636 10.7855C37.7117 11.0513 37.8945 11.2978 38.0399 11.565C38.1354 11.7395 38.2268 11.9111 38.3459 12.0745C38.5383 12.3418 38.6283 12.6713 38.7723 12.969C38.9302 13.2943 39.1254 13.5976 39.2625 13.9382C39.3968 14.2733 39.6211 14.5709 39.8024 14.8866C39.8246 14.9254 39.8288 14.9739 39.8537 15.0542C40.2926 15.0099 40.7509 15.1622 41.1995 14.9642C41.2673 14.9337 41.3712 14.9351 41.4404 14.9642C41.8904 15.1511 42.3584 15.0112 42.7945 15.0625C43.0036 14.6886 43.2362 14.3466 43.3941 13.9728C43.581 13.5256 43.8634 13.1296 44.0351 12.6754C44.1307 12.4207 44.276 12.1881 44.4311 11.9582C44.5903 11.7228 44.6762 11.4404 44.8229 11.1953C44.9642 10.9572 45.1414 10.7412 45.302 10.5141C45.4529 10.2995 45.608 10.089 45.7479 9.8675C45.8032 9.78027 45.8254 9.67227 45.8531 9.56981C45.9431 9.24582 46.2172 9.0409 46.3737 8.75983C46.5066 8.52168 46.6811 8.30984 46.7946 8.05508C46.8929 7.83354 47.0452 7.63001 47.2044 7.44447C47.4897 7.11494 47.7223 6.7508 47.9604 6.38942C47.9784 6.36311 48.0061 6.34234 48.0283 6.32019C48.5156 5.83005 49.0099 5.34821 49.4489 4.81099C49.687 4.51885 49.993 4.29593 50.3281 4.11316C50.4098 4.06885 50.4762 3.9844 50.5358 3.90824C50.9068 3.44164 51.4205 3.1398 51.8788 2.77842C52.1073 2.59842 52.344 2.41843 52.5891 2.25643C52.9671 2.00721 53.3285 1.73306 53.8103 1.66383C54.2007 1.60706 54.5331 1.35091 54.8557 1.1363C55.1353 0.949383 55.4427 0.892615 55.7446 0.801232C56.1655 0.672466 56.5933 0.568622 57.0198 0.460624C57.1402 0.430163 57.2676 0.431548 57.3881 0.405241C57.4905 0.383087 57.5874 0.334627 57.6899 0.311089C58.1773 0.198937 58.6674 0.131093 59.17 0.0937089C59.53 0.0674018 59.8914 0.00648003 60.2542 0.0217105C60.6488 0.0369409 61.0406 0.108939 61.4352 0.108939C61.816 0.108939 62.1469 0.330473 62.5263 0.311089C62.6356 0.44124 62.7866 0.394164 62.925 0.412164C63.0593 0.430163 63.1895 0.4897 63.3252 0.503546C63.8001 0.554776 64.2224 0.780464 64.6751 0.903692C64.7568 0.925845 64.8094 1.04492 64.8898 1.09061C65.3924 1.37445 65.9102 1.63337 66.3796 1.97259C66.7008 2.00859 66.8711 2.28966 67.1023 2.45581C67.5149 2.75211 67.8749 3.12595 68.2446 3.48041C68.6738 3.89301 68.9577 4.415 69.2844 4.90376C69.4561 5.16129 69.6403 5.41329 69.8369 5.65144C70.1332 6.00866 70.3519 6.40327 70.5056 6.8408C70.5402 6.9391 70.6399 7.0111 70.6953 7.10387C70.8269 7.3254 70.9584 7.54693 71.0761 7.77677C71.1924 8.00385 71.2879 8.25169 71.3599 8.48707C71.4347 8.72799 71.5801 8.91906 71.6285 9.15305C71.6978 9.43551 71.7476 9.72489 71.8445 9.99765C71.9068 10.1749 71.8459 10.3521 71.947 10.5432C72.0633 10.7619 72.0204 11.061 72.0661 11.3227C72.1298 11.6841 72.1824 12.0524 72.2959 12.3999C72.3679 12.6201 72.3859 12.8485 72.4413 13.0687C72.57 13.5823 72.6559 14.1057 72.6628 14.6443C72.667 14.9725 72.7971 15.2992 72.8747 15.626C72.8843 15.6689 72.937 15.7035 72.9411 15.7437C72.9785 16.0884 73.0422 16.4346 73.0283 16.7766C73.0214 16.969 73.2997 17.1435 73.0602 17.3387C73.2277 17.4675 73.0422 17.7167 73.2305 17.8386C73.2651 18.1501 73.3357 18.4616 73.3288 18.7718C73.3066 19.7534 73.5046 20.7268 73.4326 21.7099C73.5683 22.0283 73.4673 22.3772 73.542 22.6915C73.704 23.3631 73.5836 24.036 73.6279 24.7047C73.6417 24.9055 73.603 25.1035 73.7151 25.3042C73.8023 25.4579 73.686 25.6601 73.8009 25.8553C73.902 26.027 73.8356 26.2707 73.9034 26.4922C74.0017 26.8162 73.9906 27.1762 74.0169 27.521C74.0349 27.7536 74.0986 27.9834 74.1499 28.2022C74.1872 28.3573 74.1499 28.5331 74.2232 28.6536C74.3188 28.8059 74.2869 28.9554 74.3146 29.1077C74.3797 29.4691 74.424 29.8429 74.5569 30.1794C74.6331 30.3718 74.496 30.6072 74.7023 30.754C74.7355 31.0987 74.7812 31.4421 74.7951 31.7883C74.8075 32.0859 74.8975 32.3656 74.9598 32.6509C74.9945 32.8101 75.0388 32.9555 74.9322 33.051C75.0277 33.339 75.1177 33.6104 75.216 33.9039C75.3434 33.8914 75.4846 33.9745 75.6064 33.8402C75.6231 33.8208 75.6632 33.8153 75.6923 33.8153C76.4303 33.8347 77.1655 33.6007 77.8966 33.7281C78.6262 33.8554 79.3434 34.0285 79.9665 34.5117C80.4013 34.8496 80.7474 35.2483 81.0825 35.6651C81.2306 35.8493 81.3109 36.0902 81.4203 36.3034C81.4591 36.5623 81.4605 36.8378 81.5546 37.0788C81.6017 37.2006 81.6197 37.3128 81.6391 37.4346C81.6571 37.5537 81.7346 37.6714 81.7277 37.7849C81.7111 38.0466 81.6834 38.3138 81.6128 38.5658C81.5422 38.8164 81.4632 39.0601 81.4328 39.3232C81.4148 39.481 81.322 39.6347 81.2445 39.7787C80.8374 40.5264 80.2407 41.0885 79.5207 41.5274C79.4847 41.5496 79.4348 41.551 79.3698 41.5676C79.5941 41.7877 79.8004 41.9927 80.0094 42.1962C80.3237 42.5022 80.5591 42.8691 80.7516 43.2568C80.8443 43.4423 80.8665 43.6666 80.9053 43.8757C80.9842 44.298 81.2043 44.7009 81.1434 45.1412C81.0936 45.5026 80.9869 45.857 80.9094 46.2143C80.8443 46.5133 80.7308 46.7847 80.5716 47.0533C80.2919 47.5241 79.9208 47.9062 79.5221 48.2676C79.4431 48.3396 79.3407 48.3853 79.259 48.4531C78.9904 48.6774 78.4531 48.9073 78.0987 48.9544C77.9644 48.9724 77.8329 49.018 77.6999 49.0499C77.5504 49.0845 77.4023 49.1316 77.2513 49.144C77.1101 49.1551 76.9841 49.1911 76.8484 49.2354C76.6906 49.288 76.5161 49.1884 76.3527 49.1648C76.1229 49.1302 75.8903 49.1108 75.6632 49.0513C75.5455 49.0208 75.4306 48.9793 75.3129 48.9557C75.1925 48.9322 75.0498 49.0056 74.9557 48.8602C74.8366 48.9793 74.7148 49.0665 74.6885 49.2756C74.6649 49.4722 74.5029 49.6494 74.4129 49.8405C74.2343 50.2213 74.0072 50.5785 73.8799 50.9883C73.8134 51.2002 73.6514 51.3815 73.5323 51.5768C73.272 52.006 73.0159 52.438 72.75 52.863C72.4787 53.2964 72.1962 53.7173 71.8597 54.1106C71.3696 54.6852 70.9141 55.2902 70.4018 55.8468C70.2855 56.211 69.9047 56.3079 69.679 56.5627C69.4533 56.8188 69.2194 57.0763 68.9507 57.2813C68.7624 57.4239 68.5741 57.5443 68.48 57.7686C67.9469 58.0705 67.6188 58.6035 67.1189 58.9552C66.6579 59.2806 66.1733 59.5949 65.805 60.0435C65.7094 60.1598 65.5654 60.2401 65.4339 60.3218C64.8579 60.6846 64.4176 61.219 63.8568 61.5887C63.4595 61.8504 63.0953 62.1702 62.6744 62.3835C62.3477 62.5496 62.0389 62.7338 61.7246 62.9179C61.4131 63.1007 61.0794 63.2447 60.7581 63.4108C60.4494 63.57 60.1448 63.7376 59.8374 63.8982C59.3833 64.1363 58.9042 64.3233 58.4584 64.5794C58.2631 64.6916 58.0596 64.8245 57.845 64.8633C57.5154 64.9228 57.2704 65.1319 56.9021 65.2689L56.9048 65.2675Z" fill="white"/>
<path d="M48.4979 63.2684C48.6544 63.1978 48.779 63.0912 48.9008 63.0939C49.3135 63.1022 49.7094 63.0579 50.0916 62.8932C50.2162 62.8392 50.3574 62.7949 50.489 62.7976C50.7797 62.8073 51.0262 62.6772 51.2782 62.5733C51.4928 62.4847 51.7019 62.4141 51.9386 62.3919C52.3014 62.3587 52.6683 62.2798 52.9868 62.0998C53.4589 61.834 53.9698 61.7689 54.4973 61.6955C54.6427 61.6138 54.7923 61.4795 54.9626 61.4449C55.569 61.3217 56.0633 60.952 56.6255 60.736C56.7238 60.6986 56.8165 60.6488 56.9965 60.5643C57.1045 60.3788 57.3662 60.2486 57.6528 60.1461C57.7802 60.1005 57.8965 60.0243 58.01 59.9481C58.3645 59.7114 58.7466 59.5258 59.1412 59.3749C59.3005 59.314 59.45 59.2586 59.5899 59.1589C59.9858 58.8751 60.3486 58.5386 60.8304 58.3794C60.9564 58.3379 61.0381 58.1606 61.1863 57.9945C61.5227 57.9059 61.8495 57.6539 62.0876 57.3216C62.2192 57.1374 62.3909 57.0419 62.5584 56.9256C62.7426 56.7982 62.9045 56.6584 62.9793 56.4562C63.3462 56.3011 63.7048 56.1572 63.8668 55.7556C64.3127 55.6975 64.4567 55.2059 64.8499 55.0633C64.9053 55.0426 64.9814 54.9761 64.9828 54.929C64.9925 54.6549 65.2847 54.6867 65.4051 54.5247C65.5283 54.3586 65.7014 54.2298 65.8565 54.09C66.0337 53.9307 66.2608 53.8061 66.3854 53.6151C66.5806 53.3118 66.8548 53.0931 67.0874 52.8328C67.3269 52.5641 67.6523 52.3662 67.7506 51.9826C67.7672 51.9148 67.8628 51.8677 67.9168 51.8082C68.2643 51.4302 68.6077 51.0494 68.814 50.5676C68.8375 50.5122 68.8777 50.461 68.9206 50.4167C69.2044 50.1231 69.3401 49.7424 69.4883 49.3796C69.6406 49.0058 69.7846 48.6388 70.0795 48.3689C70.085 48.2927 70.0656 48.2013 70.0989 48.1695C70.3578 47.9272 70.3841 47.5616 70.5848 47.2944C70.6499 47.2072 70.6541 47.1283 70.6748 47.0355C70.7371 46.7697 70.8091 46.5107 70.9864 46.2823C71.1124 46.1203 71.2204 45.9112 71.2439 45.7118C71.2702 45.4917 71.3367 45.2895 71.4156 45.0943C71.4738 44.9503 71.471 44.8548 71.3685 44.7662C71.4101 44.6831 71.4488 44.6014 71.489 44.5225C71.5222 44.4546 71.561 44.3896 71.5914 44.3203C71.6676 44.1473 71.7687 43.7263 71.7216 43.6613C71.5596 43.437 71.6025 43.1614 71.6676 42.9648C71.7673 42.6602 71.7396 42.3667 71.7382 42.0704C71.7382 41.7907 71.6662 41.511 71.651 41.2313C71.6344 40.9392 71.6468 40.6456 71.6468 40.3521V39.9007C71.5679 39.7512 71.5056 39.6293 71.4696 39.5615C71.5042 39.4078 71.5804 39.2638 71.5388 39.2098C71.4142 39.0464 71.5222 38.8374 71.4391 38.7141C71.3118 38.5258 71.3741 38.3431 71.3574 38.1589C71.3436 38.008 71.2467 37.8612 71.3464 37.6978C71.3754 37.6494 71.3339 37.5469 71.3076 37.4763C71.165 37.0997 71.1221 36.6954 71.075 36.3063C71.0085 35.7553 71.0805 35.1931 70.9739 34.6351C70.9365 34.4371 70.9102 34.2281 70.8147 34.0647C70.6928 33.8556 70.8839 33.6078 70.6873 33.4319C70.5599 32.8767 70.3661 32.334 70.3702 31.7524C70.3702 31.6209 70.3135 31.488 70.2844 31.3675C70.3232 31.3108 70.3578 31.2609 70.3855 31.2221C70.2761 30.9798 70.2512 30.7901 70.2761 30.5382C70.2858 30.4412 70.3135 30.3222 70.2705 30.2488C70.1376 30.0245 70.1805 29.7863 70.1819 29.5523C70.1847 29.2671 70.0947 29.0068 70.0089 28.7437C69.9562 28.5845 69.9133 28.4211 69.8898 28.2564C69.8704 28.1124 69.8981 27.9628 69.8829 27.8174C69.8662 27.6665 69.8247 27.517 69.7873 27.3688C69.761 27.2664 69.7029 27.1695 69.6946 27.067C69.6793 26.8732 69.7029 26.6752 69.6863 26.4813C69.6696 26.2819 69.6101 26.0853 69.5963 25.8859C69.5796 25.6589 69.5921 25.4304 69.5921 25.2656C69.2944 24.7229 69.3872 24.2051 69.4426 23.69C69.4647 23.4851 69.5506 23.2469 69.4758 23.0835C69.3803 22.8745 69.4259 22.6792 69.3955 22.4812C69.3692 22.3151 69.318 22.1503 69.3027 21.9842C69.2861 21.8069 69.3027 21.6256 69.2958 21.447C69.2944 21.4068 69.2487 21.3694 69.2349 21.3265C69.156 21.0662 69.03 20.8059 69.0189 20.5414C69.0064 20.2548 68.9815 19.9682 68.8943 19.7065C68.8209 19.4864 68.8167 19.2773 68.8084 19.0585C68.8057 18.9796 68.8223 18.8744 68.7793 18.8301C68.6533 18.6999 68.7655 18.5379 68.706 18.4189C68.6312 18.2707 68.6035 18.1267 68.6132 17.9675C68.6187 17.8706 68.6423 17.7598 68.6077 17.6767C68.4429 17.2932 68.4097 16.8931 68.418 16.4832C68.4194 16.3877 68.447 16.2561 68.3972 16.2021C68.2726 16.0706 68.3487 15.9252 68.3197 15.7895C68.2906 15.6552 68.238 15.5237 68.2283 15.3894C68.22 15.2856 68.2629 15.1776 68.2837 15.0723C68.2947 15.0128 68.3321 14.9463 68.3169 14.8937C68.2657 14.7068 68.1231 14.5116 68.1535 14.3454C68.1909 14.1433 68.1424 13.9508 68.1051 13.7888C68.0552 13.5728 68.0372 13.3305 67.9251 13.1353C67.7921 12.9068 67.8544 12.6714 67.8309 12.4388C67.8268 12.3973 67.77 12.3627 67.7631 12.3211C67.6855 11.8476 67.4612 11.399 67.536 10.8964C67.5941 10.5087 67.3795 10.2152 67.1428 9.92858V9.46613C67.1054 9.4149 67.0708 9.38029 67.0514 9.33875C66.8866 8.98291 66.7302 8.6243 66.5585 8.27262C66.4782 8.10924 66.3092 7.96801 66.2857 7.80186C66.2248 7.37818 65.9243 7.11787 65.6779 6.83265C65.43 6.54604 65.0714 6.3522 64.8416 6.05451C64.6464 5.80252 64.3819 5.64329 64.1742 5.41622C64.105 5.34007 64.0039 5.27361 63.9056 5.24591C63.7353 5.19884 63.5816 5.14761 63.4653 5.00223C63.4224 4.94823 63.3255 4.94131 63.2701 4.89284C63.0153 4.67962 62.6719 4.69208 62.3923 4.5287C62.06 4.33347 61.664 4.32101 61.2943 4.23517C61.1987 4.21301 61.0824 4.26147 60.9786 4.29055C60.8401 4.3307 60.7224 4.31409 60.5771 4.27393C60.3278 4.20471 60.0758 4.12717 59.8031 4.12301C59.3891 4.11748 59.0056 4.22132 58.611 4.31824C58.0627 4.45255 57.5351 4.62562 56.9896 4.91084C56.703 4.86238 56.3762 4.97038 56.1256 5.15453C55.7033 5.46468 55.2866 5.77344 54.8075 5.99359C54.6566 6.06282 54.5098 6.16666 54.3935 6.28574C54.0723 6.61112 53.6666 6.8105 53.2969 7.06526C53.1834 7.14418 53.0325 7.21618 52.9826 7.32833C52.8843 7.54848 52.7112 7.70079 52.5368 7.81709C52.4039 7.9057 52.2682 7.99155 52.1782 8.11201C51.9802 8.37508 51.7628 8.60907 51.49 8.79738C51.4153 8.84861 51.353 8.93307 51.3142 9.01614C51.2366 9.17952 51.1979 9.3609 51.1106 9.51736C51.0137 9.69182 50.878 9.84413 50.7645 10.0103C50.7313 10.0587 50.7174 10.121 50.6939 10.1764C50.6634 10.182 50.6247 10.1778 50.6053 10.1958C50.4502 10.337 50.2882 10.4727 50.1497 10.6278C49.9351 10.8687 49.9199 11.2315 49.6541 11.4516C49.5931 11.5015 49.5835 11.615 49.553 11.6995C49.5475 11.7133 49.5571 11.7327 49.553 11.7479C49.4436 12.0719 49.3259 12.3862 49.0448 12.6147C48.8704 12.7559 48.7735 12.9414 48.7624 13.1837C48.7569 13.3084 48.671 13.4413 48.5893 13.5465C48.4827 13.685 48.4162 13.829 48.3761 13.9979C48.3304 14.1876 48.2861 14.398 48.1712 14.5448C47.8583 14.9477 47.6381 15.3949 47.4553 15.8643C47.3543 16.1246 47.2255 16.3586 47.0441 16.576C46.8669 16.7878 46.9361 17.1077 46.7658 17.3389C46.6966 17.433 46.6634 17.5563 46.6218 17.6684C46.5443 17.8816 46.4931 18.1004 46.3338 18.2859C46.1884 18.4549 46.1026 18.6736 45.9766 18.8952C45.6942 18.8952 45.3868 18.9049 45.0794 18.891C44.9285 18.8841 44.7609 18.7692 44.6349 18.8093C44.3373 18.9035 44.0423 18.8882 43.7433 18.8993C43.7073 18.8993 43.6727 18.9589 43.663 18.9672C43.555 18.9395 43.4705 18.9062 43.3833 18.8966C43.087 18.8661 42.7934 18.9104 42.4888 18.8162C42.2728 18.7498 42.0015 18.7581 41.7453 18.8772C41.5861 18.9505 41.3729 19.0959 41.1389 18.9076C41.0475 18.8342 40.8066 18.8661 40.6806 18.9367C40.502 19.0364 40.2998 19.0336 40.171 18.9782C39.7903 18.8162 39.4095 18.9325 39.0315 18.9007C38.9512 18.8938 38.864 18.9602 38.8806 18.9533C38.6355 18.9353 38.4874 18.9145 38.3392 18.9187C38.2686 18.9201 38.198 18.9879 38.1274 18.9893C37.6414 18.9962 37.1568 18.9935 36.6431 18.9935C36.5434 18.7276 36.4243 18.4798 36.3648 18.2167C36.3288 18.0603 36.2596 17.9329 36.1876 17.8C36.1516 17.7335 36.0657 17.6698 36.0685 17.6075C36.081 17.2821 35.8761 17.0883 35.7113 16.9304C35.5922 16.5248 35.4288 16.2008 35.1962 15.91C35.1824 15.7743 35.2004 15.6179 35.145 15.4946C35.0162 15.2052 34.8584 14.9283 34.6978 14.6542C34.6659 14.5988 34.5676 14.5822 34.5012 14.549C34.3253 14.0076 34.0567 13.5271 33.6275 13.1934C33.561 12.5288 33.0446 12.1841 32.7372 11.6732C32.823 11.4322 32.6514 11.1969 32.5157 11.0252C32.2526 10.6915 32.1072 10.2429 31.6974 10.0643C31.5575 9.79428 31.462 9.51044 31.2848 9.29168C30.9317 8.85691 30.5288 8.46231 30.1536 8.04555C30.0289 7.90709 29.9099 7.75894 29.8088 7.60248C29.6454 7.34772 29.518 7.07218 29.2273 6.92126C29.0237 6.81604 28.8382 6.67619 28.6499 6.54327C28.4561 6.4062 28.3494 6.17913 28.1085 6.07944C27.8995 5.99359 27.7222 5.74437 27.5256 5.73744C27.2335 5.72775 27.1725 5.41899 26.9233 5.39822C26.8527 5.39268 26.789 5.33176 26.7184 5.30545C26.5204 5.23207 26.3099 5.18499 26.1258 5.08669C25.8517 4.93992 25.5498 4.89146 25.2577 4.825C24.9378 4.75162 24.6028 4.753 24.2746 4.71562C24.2178 4.7087 24.1666 4.663 24.1098 4.64362C23.52 4.44147 22.9122 4.53008 22.3099 4.54393C22.26 4.54393 22.2116 4.60762 22.1908 4.62147C21.9637 4.49824 21.7837 4.49962 21.576 4.57854C21.3781 4.6547 21.1607 4.70177 20.9488 4.71146C20.5556 4.72808 20.1915 4.81669 19.8481 5.00915C19.4659 5.22238 19.0755 5.42314 18.685 5.62114C18.4192 5.75683 18.1907 5.93405 17.9664 6.13482C17.5109 6.54189 17.1786 7.04449 16.8048 7.51525C16.8491 7.70079 16.6442 7.62048 16.5929 7.71186C16.5334 7.81848 16.4559 7.91678 16.388 8.01786C16.1512 8.37093 15.8923 8.70738 15.7566 9.12553C15.6556 9.43983 15.5905 9.77074 15.4202 10.0601C15.3177 10.2332 15.2651 10.4215 15.236 10.6209C15.2263 10.6915 15.1668 10.7552 15.1446 10.8258C15.0103 11.2592 14.8733 11.6925 14.7542 12.1301C14.6974 12.3378 14.6088 12.5455 14.6476 12.7739C14.6559 12.8251 14.6074 12.8861 14.5894 12.9428C14.4593 13.3568 14.2917 13.7653 14.3568 14.2166C14.3679 14.2942 14.3748 14.387 14.3444 14.4548C14.2142 14.7428 14.1616 15.0696 14.1837 15.3562C14.2239 15.8685 13.9345 16.3254 14.019 16.8335C14.0453 16.9969 13.9941 17.1755 13.9678 17.3458C13.9428 17.512 13.8819 17.6767 13.875 17.8429C13.8334 18.7899 13.9567 19.7439 13.7739 20.6868C13.7421 20.8516 13.7213 21.0191 13.6922 21.2033C13.7074 21.2199 13.7393 21.2545 13.7725 21.2891C13.5939 21.4525 13.5815 21.6657 13.5731 21.8914C13.5565 22.3179 13.5136 22.7443 13.4776 23.1708C13.4735 23.2137 13.4416 23.2538 13.4264 23.2954C13.2755 23.7218 13.1508 24.1524 13.1841 24.6135C13.1979 24.8087 13.1993 25.0053 13.1841 25.1992C13.1675 25.3986 13.1481 25.6049 13.0816 25.7918C13.0318 25.9316 13.0484 26.0742 13.0055 26.2155C12.9515 26.3941 13.0055 26.6032 12.9888 26.7984C12.975 26.9659 12.9099 27.1293 12.8988 27.2968C12.8822 27.5405 12.9667 27.8174 12.8753 28.021C12.7715 28.255 12.7687 28.5167 12.6676 28.7147C12.5596 28.9251 12.669 29.0331 12.6925 29.1522C12.5873 29.3349 12.4115 29.4983 12.4212 29.6506C12.4475 30.0715 12.2619 30.4634 12.3062 30.8497C12.2356 30.966 12.1581 31.0518 12.1304 31.1501C12.0778 31.3426 12.1498 31.5572 12.0183 31.7414C11.9878 31.7843 12.0099 31.8687 12.0155 31.9338C12.0183 31.9795 12.0252 32.028 12.0432 32.0681C12.0612 32.1083 12.0958 32.1415 12.1304 32.1858C12.0972 32.2315 12.0543 32.2647 12.0473 32.3049C11.9989 32.5638 11.9546 32.8227 11.9186 33.083C11.9033 33.1938 11.9463 33.3267 11.8992 33.4167C11.7967 33.6119 11.7773 33.8252 11.7289 34.0301C11.6818 34.2253 11.5973 34.4025 11.5406 34.5881C11.4769 34.7971 11.5253 35.0394 11.5253 35.2679C11.5253 35.2845 11.5323 35.3067 11.5253 35.3164C11.3024 35.5628 11.5627 35.9214 11.3315 36.1651C11.3315 36.4753 11.3315 36.784 11.3315 37.0942C11.3315 37.1745 11.3537 37.2714 11.3163 37.3309C11.1543 37.5982 11.1764 37.8958 11.1197 38.1824C11.0601 38.4815 11.0532 38.7751 11.0352 39.0741C11.0144 39.4203 10.9729 39.7636 10.9397 40.1084C10.9369 40.1375 10.912 40.1638 10.9078 40.1929C10.869 40.4656 10.6351 40.7093 10.8317 41.0209C10.8954 41.1205 10.8815 41.3338 10.815 41.4404C10.678 41.6605 10.7541 41.8834 10.7541 42.0981C10.7541 42.3279 10.6891 42.5605 10.8234 42.8C10.9064 42.9468 10.876 43.1725 10.7444 43.3359C10.93 43.5976 10.8206 43.8939 10.8372 44.1749C10.8552 44.4657 10.8414 44.7592 10.8414 45.0514C10.9701 45.2785 11.056 45.5208 11.1335 45.7631C11.2346 46.0787 11.2138 46.4415 11.5004 46.6893C11.5641 46.7433 11.5946 46.8444 11.6209 46.9303C11.6929 47.1615 11.7496 47.3983 11.8189 47.6309C11.8798 47.833 11.9047 48.067 12.0238 48.2262C12.183 48.4381 12.2979 48.6693 12.435 48.8908C12.6205 49.1885 12.8601 49.4668 12.975 49.7908C13.0955 50.1259 13.2588 50.4 13.5025 50.6507C13.6756 50.8293 13.8916 51.0203 13.9484 51.2433C14.0259 51.5465 14.2142 51.7306 14.4025 51.9383C14.5271 52.0768 14.66 52.2194 14.7445 52.3828C14.9716 52.8258 15.2693 53.1831 15.7234 53.4115C15.8743 53.4877 16.0446 53.6123 16.1056 53.7563C16.2135 54.0138 16.4226 54.1689 16.6151 54.3184C16.7895 54.4541 16.9848 54.576 17.1108 54.7518C17.2478 54.9429 17.4915 55.0273 17.5884 55.2281C17.6978 55.4552 17.8931 55.5825 18.08 55.6919C18.3804 55.8678 18.613 56.1115 18.8152 56.369C18.944 56.5324 19.0963 56.639 19.2583 56.7207C19.4756 56.8301 19.6473 56.9796 19.8149 57.1471C19.9741 57.3064 20.1195 57.5016 20.3119 57.5999C20.6802 57.7868 20.9876 58.061 21.3642 58.2396C21.6037 58.3531 21.853 58.486 22.0814 58.6356C22.6533 59.0122 23.2389 59.3611 23.8482 59.6782C24.1071 59.8125 24.4061 59.8055 24.6471 60.0063C24.8603 60.1849 25.1497 60.2763 25.41 60.3954C25.547 60.4577 25.6924 60.5269 25.8378 60.5366C26.0773 60.5504 26.2698 60.7097 26.4899 60.7291C26.7433 60.7512 26.9358 60.844 27.1089 61.017C27.1352 61.0434 27.2016 61.0212 27.2473 61.0337C27.6433 61.1361 28.0407 61.2552 28.3951 61.4463C28.8604 61.6983 29.3311 61.8436 29.849 61.8146C29.9251 61.8824 29.9888 61.9599 30.0705 62.007C30.2532 62.1123 30.4512 62.2895 30.6326 62.277C30.8943 62.259 31.0397 62.4266 31.2322 62.5055C31.7486 62.7146 32.3135 62.7049 32.8327 62.8876C33.2066 63.0192 33.6081 63.0413 33.9833 63.1756C34.1689 63.2421 34.4098 63.195 34.5676 63.2933C34.7518 63.4055 34.9581 63.3376 35.1422 63.4567C35.2516 63.5273 35.487 63.5508 35.613 63.3985C36.0796 63.6948 36.6583 63.519 37.1305 63.7655C37.1942 63.7987 37.2925 63.7807 37.3714 63.7655C37.4116 63.7585 37.4448 63.7073 37.4808 63.6755C37.5016 63.6948 37.5223 63.7322 37.5486 63.7364C38.0554 63.8125 38.5414 64.005 39.0675 63.9704C39.2669 63.9579 39.4815 63.9081 39.6643 64.0604C39.6934 64.0839 39.7778 64.0853 39.8055 64.0604C40.0021 63.8831 40.2375 63.9787 40.4521 63.9704C40.8758 63.9551 41.3036 64.0036 41.7218 63.9524C41.9848 63.9205 42.2631 63.8014 42.5082 63.8845C42.7311 63.9593 42.9402 63.9551 43.1576 63.9662C43.6796 63.9898 44.1808 63.8693 44.6917 63.7876C45.0766 63.7267 45.4685 63.609 45.8714 63.6699C45.9475 63.681 46.0417 63.6824 46.104 63.6464C46.4197 63.465 46.7852 63.4788 47.123 63.3972C47.5647 63.2892 48.0355 63.3072 48.5007 63.2698L48.4979 63.2684Z" fill="#87C7EC"/>
<path d="M48.4988 63.2681C48.035 63.3054 47.5628 63.2874 47.1212 63.3954C46.7833 63.4771 46.4178 63.4633 46.1021 63.6447C46.0398 63.6807 45.9456 63.6793 45.8695 63.6682C45.4666 63.6073 45.0747 63.725 44.6898 63.7859C44.1789 63.8662 43.6777 63.988 43.1557 63.9645C42.9383 63.9548 42.7292 63.959 42.5063 63.8828C42.2613 63.7997 41.983 63.9188 41.7199 63.9507C41.3031 64.0019 40.8739 63.9534 40.4502 63.9687C40.2342 63.977 40.0002 63.8814 39.8036 64.0587C39.7773 64.0836 39.6915 64.0822 39.6624 64.0587C39.4796 63.9077 39.2636 63.9562 39.0656 63.9687C38.5395 64.0033 38.0521 63.8108 37.5467 63.7347C37.5204 63.7305 37.501 63.6931 37.4789 63.6737C37.4429 63.7056 37.4097 63.7568 37.3695 63.7637C37.2906 63.7776 37.1923 63.797 37.1286 63.7637C36.6565 63.5187 36.0777 63.6931 35.6111 63.3968C35.4865 63.5491 35.2511 63.5256 35.1403 63.455C34.9562 63.3373 34.7499 63.4051 34.5657 63.2916C34.4065 63.1947 34.167 63.2418 33.9814 63.1739C33.6062 63.0396 33.2047 63.0161 32.8308 62.8859C32.3102 62.7032 31.7467 62.7128 31.2303 62.5038C31.0364 62.4262 30.891 62.2573 30.6307 62.2753C30.4494 62.2878 30.2514 62.1105 30.0686 62.0053C29.9869 61.9582 29.9232 61.8807 29.8471 61.8129C29.3292 61.8406 28.8585 61.6966 28.3932 61.4446C28.0402 61.2535 27.6414 61.1344 27.2454 61.032C27.1997 61.0209 27.1333 61.0416 27.107 61.0153C26.9339 60.8423 26.7414 60.7509 26.4881 60.7273C26.2665 60.708 26.0741 60.5487 25.8359 60.5349C25.6905 60.5266 25.5451 60.456 25.4081 60.3937C25.1478 60.2746 24.8584 60.1832 24.6452 60.0046C24.4043 59.8038 24.1052 59.8108 23.8463 59.6764C23.237 59.3594 22.6514 59.0105 22.0795 58.6339C21.8511 58.4829 21.6018 58.35 21.3623 58.2379C20.9857 58.0592 20.6769 57.7851 20.31 57.5982C20.1176 57.4999 19.9722 57.3046 19.813 57.1454C19.6454 56.9779 19.4737 56.8284 19.2564 56.719C19.0944 56.6373 18.9421 56.532 18.8133 56.3673C18.6111 56.1097 18.3785 55.8661 18.0781 55.6902C17.8912 55.5808 17.6959 55.4535 17.5866 55.2264C17.4896 55.0256 17.2459 54.9412 17.1089 54.7501C16.9829 54.5742 16.7876 54.4538 16.6132 54.3167C16.4221 54.1672 16.2117 54.0121 16.1037 53.7546C16.0427 53.6092 15.871 53.486 15.7215 53.4098C15.2688 53.1814 14.9697 52.8227 14.7426 52.3811C14.6582 52.2177 14.5266 52.0751 14.4006 51.9366C14.2123 51.7275 14.024 51.5448 13.9465 51.2415C13.8897 51.02 13.6737 50.8276 13.5006 50.6489C13.257 50.3983 13.0922 50.1242 12.9731 49.7891C12.8582 49.4665 12.6187 49.1868 12.4331 48.8891C12.296 48.669 12.1811 48.4364 12.0219 48.2245C11.9014 48.0653 11.8765 47.8313 11.817 47.6292C11.7478 47.3965 11.6896 47.1612 11.619 46.9286C11.5927 46.8427 11.5608 46.743 11.4985 46.6876C11.2119 46.4398 11.2327 46.0784 11.1316 45.7614C11.0541 45.5177 10.9682 45.2767 10.8395 45.0497C10.8395 44.7575 10.8533 44.464 10.8353 44.1732C10.8173 43.8922 10.9281 43.5959 10.7425 43.3342C10.8727 43.1694 10.9032 42.9437 10.8215 42.7983C10.6872 42.5588 10.7522 42.3262 10.7522 42.0964C10.7522 41.8817 10.6761 41.6588 10.8132 41.4387C10.8796 41.3321 10.8935 41.1202 10.8298 41.0191C10.6318 40.7076 10.8672 40.4639 10.9059 40.1912C10.9101 40.1621 10.935 40.1358 10.9378 40.1067C10.9724 39.7619 11.0139 39.4172 11.0333 39.0724C11.0513 38.7733 11.0582 38.4812 11.1178 38.1807C11.1745 37.8941 11.1524 37.5951 11.3144 37.3292C11.3504 37.2697 11.3296 37.1728 11.3296 37.0925C11.3296 36.7823 11.3296 36.4735 11.3296 36.1634C11.5608 35.9197 11.3019 35.5625 11.5234 35.3146C11.5318 35.3063 11.5234 35.2828 11.5234 35.2662C11.5234 35.0377 11.475 34.7954 11.5387 34.5864C11.5954 34.4022 11.6799 34.2236 11.727 34.0284C11.7754 33.8248 11.7948 33.6102 11.8973 33.415C11.9444 33.325 11.9014 33.1921 11.9167 33.0813C11.9527 32.821 11.997 32.5621 12.0454 32.3032C12.0524 32.263 12.0953 32.2298 12.1285 32.1841C12.0939 32.1384 12.0593 32.1066 12.0413 32.0664C12.0233 32.0249 12.0164 31.9778 12.0136 31.9321C12.0094 31.867 11.9859 31.7826 12.0164 31.7396C12.1479 31.5555 12.0759 31.3409 12.1285 31.1484C12.1562 31.0487 12.2337 30.9643 12.3044 30.848C12.26 30.4617 12.447 30.0712 12.4193 29.6489C12.4096 29.4966 12.5854 29.3332 12.6907 29.1505C12.6671 29.0328 12.5577 28.9234 12.6657 28.7129C12.7682 28.5136 12.7696 28.2533 12.8734 28.0193C12.9634 27.8143 12.8803 27.5374 12.897 27.2951C12.908 27.1276 12.9731 26.9642 12.987 26.7967C13.0036 26.6028 12.9496 26.3938 13.0036 26.2138C13.0465 26.0725 13.0299 25.9299 13.0797 25.7901C13.1462 25.6045 13.1656 25.3969 13.1822 25.1975C13.1988 25.0036 13.1974 24.8056 13.1822 24.6118C13.1503 24.1507 13.275 23.7201 13.4245 23.2937C13.4397 23.2508 13.4716 23.212 13.4757 23.1691C13.5117 22.7426 13.5546 22.3162 13.5713 21.8897C13.5796 21.6626 13.592 21.4508 13.7706 21.2874C13.7374 21.2528 13.7056 21.2168 13.6903 21.2016C13.7194 21.0174 13.7402 20.8499 13.772 20.6851C13.9548 19.7422 13.8316 18.7896 13.8731 17.8412C13.88 17.675 13.9396 17.5103 13.9659 17.3441C13.9922 17.1738 14.0448 16.9952 14.0171 16.8318C13.9326 16.3223 14.2234 15.8668 14.1819 15.3545C14.1597 15.0678 14.2123 14.7411 14.3425 14.4531C14.3729 14.3852 14.366 14.2939 14.3549 14.2149C14.2912 13.7636 14.4574 13.3565 14.5875 12.9411C14.6055 12.8844 14.654 12.8234 14.6457 12.7722C14.6069 12.5437 14.6955 12.3374 14.7523 12.1284C14.87 11.6908 15.0085 11.2575 15.1428 10.8241C15.1649 10.7535 15.2244 10.6898 15.2341 10.6192C15.2618 10.4198 15.3158 10.2329 15.4183 10.0584C15.5886 9.76765 15.6537 9.43673 15.7547 9.12382C15.8904 8.70567 16.148 8.36922 16.3861 8.01615C16.454 7.91369 16.5315 7.81677 16.591 7.71015C16.6423 7.61877 16.8472 7.69908 16.8029 7.51354C17.1767 7.04278 17.509 6.54018 17.9645 6.13311C18.1888 5.93234 18.4173 5.7565 18.6831 5.61943C19.0736 5.42005 19.464 5.22067 19.8462 5.00744C20.191 4.81498 20.5551 4.72775 20.9469 4.70976C21.1588 4.70006 21.3762 4.65299 21.5742 4.57683C21.7832 4.49653 21.9618 4.49653 22.1889 4.61976C22.2097 4.60591 22.2581 4.5436 22.308 4.54222C22.9103 4.52837 23.5181 4.44115 24.108 4.64191C24.1647 4.66129 24.2159 4.70699 24.2727 4.71391C24.6009 4.75129 24.9373 4.74991 25.2558 4.82329C25.5479 4.88975 25.8498 4.9396 26.1239 5.08498C26.3081 5.18328 26.5199 5.23036 26.7165 5.30374C26.7871 5.33005 26.8508 5.39097 26.9214 5.39651C27.1707 5.41728 27.233 5.72466 27.5237 5.73573C27.7203 5.74266 27.8976 5.99188 28.1066 6.07773C28.3476 6.17742 28.4542 6.40449 28.648 6.54156C28.8349 6.67448 29.0218 6.81294 29.2254 6.91955C29.5161 7.07186 29.6435 7.34739 29.8069 7.60077C29.908 7.75723 30.0257 7.90538 30.1517 8.04384C30.5269 8.4606 30.9284 8.85521 31.2829 9.28997C31.4601 9.50735 31.5556 9.79257 31.6955 10.0626C32.1053 10.2398 32.2507 10.6898 32.5138 11.0235C32.6481 11.1952 32.8211 11.4305 32.7353 11.6715C33.0427 12.1824 33.5591 12.5271 33.6256 13.1917C34.0548 13.5254 34.3234 14.0059 34.4993 14.5472C34.5657 14.5805 34.6626 14.5971 34.6959 14.6525C34.8565 14.9266 35.0143 15.2035 35.1431 15.4929C35.1985 15.6161 35.1805 15.7726 35.1943 15.9083C35.4269 16.1991 35.5889 16.523 35.7094 16.9287C35.8742 17.0866 36.0791 17.2804 36.0666 17.6058C36.0638 17.6681 36.1497 17.7304 36.1857 17.7982C36.2577 17.9312 36.3283 18.0585 36.3629 18.215C36.4225 18.4767 36.5429 18.7245 36.6412 18.9918C37.1549 18.9918 37.6395 18.9945 38.1255 18.9876C38.1961 18.9876 38.2667 18.9184 38.3373 18.917C38.4855 18.9142 38.6323 18.935 38.8787 18.9516C38.8621 18.9585 38.9493 18.8921 39.0296 18.899C39.4076 18.9308 39.7884 18.8145 40.1691 18.9765C40.2993 19.0319 40.5001 19.0347 40.6787 18.935C40.8047 18.8658 41.0456 18.8325 41.137 18.9059C41.371 19.0942 41.5842 18.9488 41.7434 18.8755C41.9996 18.755 42.2709 18.7467 42.4869 18.8145C42.7915 18.9087 43.0851 18.8644 43.3814 18.8948C43.4686 18.9045 43.5531 18.9364 43.6611 18.9655C43.6694 18.9571 43.704 18.899 43.7414 18.8976C44.0404 18.8865 44.3367 18.9031 44.633 18.8076C44.759 18.7675 44.9266 18.881 45.0775 18.8893C45.3849 18.9045 45.6923 18.8935 45.9747 18.8935C46.1007 18.6733 46.1879 18.4545 46.3319 18.2842C46.4912 18.0987 46.541 17.8813 46.6199 17.6667C46.6615 17.5532 46.6947 17.4313 46.7639 17.3372C46.9342 17.106 46.865 16.7861 47.0422 16.5743C47.2236 16.3569 47.3524 16.1229 47.4534 15.8626C47.6362 15.3932 47.8564 14.9474 48.1693 14.5431C48.2842 14.3949 48.3285 14.1845 48.3742 13.9962C48.4157 13.8273 48.4822 13.6833 48.5874 13.5448C48.6677 13.4396 48.7536 13.3067 48.7605 13.182C48.773 12.9411 48.8699 12.7542 49.043 12.613C49.324 12.3845 49.4403 12.0688 49.5511 11.7462C49.5566 11.731 49.5469 11.7116 49.5511 11.6978C49.5816 11.6133 49.5913 11.4998 49.6522 11.4499C49.918 11.2312 49.9332 10.867 50.1479 10.6261C50.2863 10.471 50.4483 10.3353 50.6034 10.1941C50.6228 10.1761 50.6615 10.1803 50.692 10.1747C50.7155 10.1193 50.7294 10.057 50.7626 10.0086C50.8761 9.84242 51.0118 9.69011 51.1088 9.51565C51.196 9.3592 51.2348 9.17781 51.3123 9.01443C51.3511 8.93136 51.4134 8.8469 51.4881 8.79567C51.7609 8.60875 51.9783 8.37476 52.1763 8.1103C52.2663 7.98984 52.4033 7.904 52.5349 7.81538C52.708 7.69908 52.8824 7.54677 52.9807 7.32662C53.0306 7.21447 53.1815 7.14247 53.295 7.06355C53.6633 6.80879 54.0704 6.60941 54.3916 6.28403C54.5093 6.16496 54.6547 6.06111 54.8056 5.99188C55.2847 5.77173 55.7 5.46297 56.1237 5.15282C56.3743 4.96867 56.7011 4.86067 56.9877 4.90914C57.5346 4.62391 58.0608 4.45084 58.6091 4.31653C59.0037 4.21961 59.3872 4.11577 59.8012 4.12131C60.074 4.12546 60.3246 4.203 60.5752 4.27223C60.7206 4.31238 60.8382 4.32899 60.9767 4.28884C61.0792 4.25976 61.1955 4.2113 61.2924 4.23346C61.6621 4.3193 62.0581 4.33176 62.3904 4.52699C62.6687 4.69037 63.0134 4.67791 63.2682 4.89114C63.325 4.93821 63.4219 4.94652 63.4634 5.00052C63.5797 5.14728 63.7334 5.19713 63.9037 5.24421C64.002 5.2719 64.1031 5.33836 64.1723 5.41451C64.38 5.64158 64.6431 5.79942 64.8397 6.0528C65.0695 6.34911 65.4281 6.54433 65.676 6.83094C65.9224 7.11617 66.2229 7.37647 66.2838 7.80015C66.3074 7.9663 66.4777 8.10753 66.5566 8.27091C66.7283 8.6226 66.8847 8.98259 67.0495 9.33704C67.0689 9.37858 67.1035 9.41319 67.1409 9.46442V9.92688C67.3763 10.2121 67.5909 10.507 67.5341 10.8947C67.4593 11.3973 67.6836 11.8445 67.7612 12.3194C67.7681 12.361 67.8249 12.3956 67.829 12.4371C67.8539 12.6697 67.7902 12.9051 67.9232 13.1336C68.0367 13.3288 68.0533 13.5711 68.1032 13.7871C68.1405 13.9491 68.189 14.1416 68.1516 14.3437C68.1212 14.5099 68.2638 14.7051 68.315 14.892C68.3302 14.9446 68.2929 15.0111 68.2818 15.0706C68.261 15.1758 68.2195 15.2838 68.2264 15.3877C68.2361 15.522 68.2887 15.6535 68.3178 15.7878C68.3469 15.9221 68.2707 16.0675 68.3953 16.2004C68.4452 16.2531 68.4175 16.3846 68.4161 16.4815C68.4078 16.8913 68.441 17.2901 68.6058 17.675C68.6418 17.7581 68.6182 17.8675 68.6113 17.9658C68.6016 18.1264 68.6293 18.269 68.7041 18.4172C68.765 18.5376 68.6515 18.6982 68.7775 18.8284C68.8204 18.8727 68.8038 18.9793 68.8065 19.0568C68.8148 19.2756 68.819 19.4847 68.8924 19.7048C68.9796 19.9665 69.0045 20.2531 69.017 20.5397C69.0281 20.8042 69.1541 21.0645 69.233 21.3248C69.2454 21.3677 69.2911 21.4051 69.2939 21.4452C69.3008 21.6239 69.2842 21.8052 69.3008 21.9825C69.3161 22.15 69.3673 22.3134 69.3936 22.4795C69.4254 22.6775 69.3798 22.8728 69.4739 23.0818C69.5487 23.2452 69.4628 23.4834 69.4407 23.6883C69.3853 24.2033 69.2925 24.7212 69.5902 25.2639C69.5902 25.4287 69.5777 25.6572 69.5944 25.8842C69.6082 26.0836 69.6677 26.2802 69.6844 26.4796C69.701 26.6734 69.6774 26.8714 69.6927 27.0653C69.701 27.1677 69.7591 27.2661 69.7854 27.3671C69.8228 27.5153 69.8644 27.6648 69.881 27.8157C69.8976 27.9611 69.8685 28.1106 69.8879 28.2546C69.91 28.4194 69.9544 28.5842 70.007 28.742C70.0942 29.0065 70.1842 29.2654 70.18 29.5506C70.1773 29.7846 70.1357 30.0228 70.2687 30.2471C70.3116 30.3191 70.2839 30.4395 70.2742 30.5364C70.2493 30.7871 70.2742 30.9781 70.3836 31.2204C70.3559 31.2592 70.3227 31.309 70.2825 31.3658C70.3102 31.4863 70.3697 31.6192 70.3683 31.7507C70.3642 32.3323 70.558 32.875 70.6854 33.4302C70.882 33.6061 70.691 33.8553 70.8128 34.063C70.907 34.2264 70.9333 34.4354 70.972 34.6334C71.0786 35.19 71.0066 35.7536 71.0731 36.3046C71.1202 36.6937 71.1631 37.098 71.3057 37.4746C71.332 37.5452 71.3736 37.6477 71.3445 37.6961C71.2448 37.8595 71.3417 38.0063 71.3556 38.1572C71.3722 38.3414 71.3099 38.5227 71.4372 38.7124C71.5203 38.8357 71.4123 39.0447 71.5369 39.2081C71.5785 39.2621 71.5009 39.4061 71.4677 39.5598C71.5037 39.6276 71.566 39.7481 71.6449 39.899V40.3504C71.6449 40.6439 71.6325 40.9375 71.6491 41.2296C71.6643 41.5107 71.7363 41.789 71.7363 42.0687C71.7363 42.365 71.7654 42.6585 71.6657 42.9631C71.602 43.1597 71.5577 43.4352 71.7197 43.6595C71.7668 43.7246 71.6657 44.1455 71.5896 44.3186C71.5591 44.3878 71.5203 44.4529 71.4871 44.5208C71.4469 44.6011 71.4082 44.6814 71.3666 44.7645C71.4691 44.8531 71.4719 44.95 71.4137 45.0926C71.3348 45.2878 71.2683 45.4886 71.242 45.7101C71.2185 45.9095 71.1105 46.1186 70.9845 46.2806C70.8073 46.509 70.7366 46.7679 70.673 47.0338C70.6508 47.1252 70.6466 47.2055 70.583 47.2927C70.3836 47.5599 70.3559 47.9255 70.097 48.1678C70.0624 48.1996 70.0831 48.291 70.0776 48.3671C69.7827 48.6371 69.6387 49.0041 69.4864 49.3779C69.3382 49.7407 69.2039 50.1214 68.9187 50.4149C68.8758 50.4593 68.8356 50.5105 68.8121 50.5659C68.6058 51.0477 68.2624 51.4285 67.9149 51.8065C67.8595 51.866 67.7653 51.9131 67.7487 51.9809C67.6518 52.3644 67.325 52.5638 67.0855 52.8311C66.8529 53.0914 66.5801 53.3115 66.3835 53.6133C66.2589 53.8058 66.0318 53.929 65.8546 54.0883C65.6995 54.2281 65.5265 54.3569 65.4032 54.523C65.2841 54.6836 64.992 54.6518 64.9809 54.9273C64.9795 54.9744 64.9034 55.0422 64.848 55.0616C64.4562 55.2042 64.3122 55.6958 63.8649 55.7539C63.7043 56.1554 63.3443 56.2994 62.9774 56.4545C62.9027 56.6567 62.7407 56.7965 62.5565 56.9239C62.389 57.0402 62.2173 57.1357 62.0858 57.3199C61.8476 57.6522 61.5208 57.9042 61.1844 57.9928C61.0376 58.1589 60.9559 58.3362 60.8285 58.3777C60.3453 58.5369 59.984 58.8734 59.588 59.1572C59.4467 59.2583 59.2972 59.3137 59.1394 59.3732C58.7448 59.5241 58.3626 59.7111 58.0081 59.9464C57.8946 60.0212 57.7769 60.0987 57.6509 60.1444C57.3643 60.2469 57.1026 60.377 56.9946 60.5626C56.8146 60.647 56.7219 60.6969 56.6236 60.7343C56.0614 60.9503 55.5657 61.3199 54.9607 61.4432C54.7904 61.4778 54.6408 61.6121 54.4955 61.6938C53.9679 61.7672 53.4556 61.8322 52.9849 62.0981C52.6664 62.2781 52.2995 62.357 51.9367 62.3902C51.7 62.4124 51.4909 62.483 51.2763 62.5716C51.0243 62.6755 50.7778 62.8042 50.4871 62.7959C50.3555 62.7918 50.2129 62.8375 50.0897 62.8915C49.7076 63.0562 49.3116 63.1005 48.899 63.0922C48.7771 63.0895 48.6525 63.1961 48.496 63.2667L48.4988 63.2681Z" fill="#87C7EC"/>
<path d="M48.4798 46.0937C48.3025 46.3872 48.1488 46.6503 47.9841 46.9078C47.9328 46.9881 47.8581 47.0629 47.7778 47.1141C47.3707 47.3786 46.9955 47.6818 46.5206 47.8535C46.2187 47.9615 45.885 48.0432 45.6178 48.2799C45.46 48.4184 45.2066 48.4613 44.9878 48.5125C44.8245 48.5513 44.6458 48.4835 44.4894 48.6122C44.3883 48.6953 44.254 48.4558 44.1335 48.6136C43.7486 48.5569 43.3859 48.7272 43.0023 48.7216C42.7393 48.7175 42.4762 48.7881 42.2117 48.8075C42.1273 48.813 42.0387 48.7632 41.9224 48.7285C41.6288 48.8947 41.2495 48.8642 40.931 48.7867C40.6416 48.7175 40.3647 48.723 40.0864 48.7202C39.6295 48.7147 39.2072 48.6289 38.7724 48.4669C38.4235 48.3367 38.0483 48.2509 37.6925 48.1235C37.3809 48.0127 37.0625 47.9116 36.7772 47.7372C36.7523 47.722 36.7011 47.7372 36.6886 47.7206C36.4408 47.3633 36.0296 47.2803 35.6779 47.0933C35.4203 46.9563 35.2071 46.7403 34.9579 46.5852C34.4179 46.2487 34.2587 45.7461 34.3099 45.1522C34.3196 45.0372 34.3681 44.9043 34.4442 44.8212C34.6034 44.6482 34.7516 44.4612 34.9828 44.3616C35.1213 44.302 35.2445 44.194 35.3567 44.0888C35.574 43.8853 35.779 43.6693 36.096 43.6305C36.3536 43.3439 36.7357 43.3633 37.0528 43.2276C37.302 43.121 37.5665 43.157 37.8101 43.0504C38.0303 42.9534 38.274 42.9119 38.508 42.8496C38.5537 42.8371 38.6257 42.869 38.6506 42.8441C38.9441 42.5644 39.3069 42.6737 39.6475 42.6516C39.9604 42.6308 40.2761 42.6945 40.589 42.5658C40.7164 42.5131 40.8964 42.5865 41.0515 42.6073C41.0958 42.6128 41.1373 42.6502 41.1788 42.6502C41.6191 42.6502 42.0387 42.7762 42.4679 42.8357C42.8833 42.8925 43.3125 42.8482 43.7362 42.8482H43.9314C43.9272 42.8607 43.9231 42.8731 43.9189 42.8856C44.1599 42.9714 44.3952 43.0822 44.6417 43.1348C44.9712 43.204 45.2841 43.2913 45.6026 43.4131C45.8961 43.5239 46.1938 43.6374 46.4915 43.7454C46.7463 43.8382 47.0052 43.9213 47.2558 44.0237C47.6795 44.1968 48.0976 44.3629 48.3524 44.8019C48.4396 44.9542 48.4216 45.1148 48.4922 45.2325C48.5933 45.4 48.5684 45.4928 48.4922 45.6548C48.4299 45.7863 48.4798 45.9718 48.4798 46.0951V46.0937Z" fill="#FFC9D3"/>
<path d="M61.0863 42.8483C61.0073 43.0255 60.9506 43.1487 60.8966 43.2733C60.873 43.3287 60.8661 43.3938 60.8343 43.4423C60.6418 43.7386 60.4798 44.0639 60.2403 44.3145C59.962 44.6053 59.6186 44.8379 59.2905 45.0788C59.1977 45.1467 59.0662 45.1785 58.9485 45.1882C58.4583 45.2297 57.9654 45.2851 57.4753 45.2768C57.2607 45.2727 57.0267 45.2201 56.8204 45.0982C56.693 45.0234 56.5365 44.9985 56.3967 44.9445C55.8553 44.7341 55.5479 44.2813 55.2212 43.8382C54.9484 43.4699 54.8722 43.0366 54.7379 42.6198C54.6286 42.282 54.5579 41.94 54.5206 41.58C54.4818 41.2186 54.5178 40.8392 54.4236 40.5C54.3433 40.2092 54.3724 39.9351 54.3516 39.6554C54.3461 39.5889 54.4056 39.517 54.4416 39.4353C54.3655 39.2483 54.2741 39.0517 54.3959 38.8274C54.4375 38.7499 54.4763 38.6031 54.4361 38.5616C54.2326 38.3456 54.4389 38.1517 54.4444 37.951C54.4513 37.7336 54.6203 37.5993 54.7116 37.4262C54.9124 37.0413 55.0689 36.6301 55.2184 36.2216C55.2544 36.1206 55.2447 36.0098 55.3416 35.9295C55.5673 35.7453 55.6296 35.4227 55.9522 35.2995C56.1544 35.222 56.3565 35.0904 56.5462 34.952C56.7262 34.8191 56.9768 34.7443 57.2288 34.7221C57.5002 34.6972 57.7674 34.6224 58.1094 34.556C58.1039 34.5532 58.1731 34.6321 58.2299 34.6238C58.5511 34.5795 58.7906 34.7595 59.0523 34.8869C59.3362 35.0267 59.6449 35.1043 59.9066 35.3064C60.1351 35.4823 60.3247 35.6706 60.4771 35.9156C60.6778 36.2383 60.8135 36.5996 61.0558 36.9001C61.1278 36.9887 61.1444 37.123 61.1901 37.2338C61.2427 37.3598 61.2995 37.483 61.384 37.6713C61.3756 37.8499 61.3701 38.1033 61.5889 38.3041C61.5266 38.5214 61.6816 38.7734 61.4892 38.9908C61.4573 39.0268 61.5044 39.139 61.521 39.2137C61.5376 39.2871 61.6013 39.3868 61.5736 39.4283C61.4892 39.5529 61.449 39.6596 61.5612 39.7842C61.4144 39.8977 61.5003 40.0556 61.4864 40.1926C61.4726 40.338 61.4698 40.4875 61.4864 40.6315C61.546 41.1591 61.377 41.6589 61.2732 42.1601C61.222 42.4066 61.0364 42.6281 61.0863 42.8455V42.8483Z" fill="white"/>
<path d="M20.8442 41.2006C20.8442 41.2006 20.8774 41.1646 20.9245 41.1147C20.9009 41.0649 20.8746 41.0109 20.8428 40.9444C20.9771 40.6315 20.9715 40.2618 20.8732 39.9517C20.7514 39.5723 20.8455 39.24 20.9231 38.8994C20.9452 38.8038 21.0145 38.7097 21.0089 38.5948C20.9951 38.2791 21.0795 37.9883 21.1972 37.6962C21.2651 37.5286 21.2485 37.3279 21.3066 37.1548C21.3828 36.9277 21.5018 36.7159 21.5932 36.493C21.7898 36.0139 22.1886 35.7508 22.6178 35.5182C22.9155 35.5584 23.108 35.3313 23.3101 35.1942C23.5704 35.017 23.8279 34.927 24.1325 34.9284C24.2572 34.9284 24.3873 34.9616 24.4884 34.837C24.5133 34.8052 24.6407 34.8065 24.6725 34.8398C24.8387 35.0129 25.0685 34.8509 25.2167 34.9409C25.3994 35.0516 25.585 34.999 25.7013 35.0253C25.9727 35.1652 26.2219 35.2399 26.3894 35.4005C26.4822 35.4891 26.6733 35.4462 26.694 35.6525C26.7037 35.7536 26.863 35.8367 26.9488 35.9336C27.1966 36.2105 27.558 36.4113 27.5705 36.8474C27.8723 37.0607 27.8142 37.4303 27.9609 37.7017C27.9166 37.7502 27.8834 37.7848 27.8585 37.8111C27.9402 38.16 28.0218 38.5006 28.098 38.8426C28.1174 38.9285 28.152 39.0378 28.116 39.1029C27.9831 39.3494 28.0758 39.6069 28.0537 39.8575C28.0495 39.9018 28.1215 39.9531 28.134 39.9697C28.0662 40.2424 27.9886 40.475 27.9554 40.7132C27.9194 40.9763 27.9499 41.2379 27.8682 41.5066C27.7962 41.7447 27.8529 42.023 27.8529 42.3013C27.7657 42.4287 27.6716 42.5685 27.5622 42.7291C27.5857 43.0365 27.4182 43.2927 27.2146 43.5336C27.1329 43.6305 27.0374 43.7177 26.9751 43.8257C26.6608 44.3616 26.0474 44.7686 25.4562 44.914C25.2208 44.9722 24.9951 44.9916 24.7611 44.9985C24.6975 45.0013 24.6144 44.9791 24.5715 45.0096C24.2613 45.2352 23.9512 45.0774 23.6826 44.9666C23.2381 44.7825 22.8075 44.5471 22.406 44.2799C22.0612 44.0514 21.8051 43.6997 21.6084 43.3439C21.4506 43.0559 21.2235 42.7956 21.1557 42.4592C21.1432 42.3996 21.1058 42.3428 21.1072 42.2847C21.1128 42.0618 21.092 41.8582 20.9577 41.6589C20.8788 41.5439 20.8829 41.3709 20.8442 41.1992V41.2006Z" fill="white"/>
<path d="M70.3342 42.3595C70.2096 42.0203 70.0642 41.645 70.276 41.238C70.2968 41.1992 70.3023 41.13 70.2802 41.0967C70.1237 40.8627 70.2525 40.5858 70.175 40.3574C70.0628 40.0265 70.103 39.6983 70.0891 39.3674C70.0863 39.3037 70.0891 39.2386 70.0891 39.1819C69.9216 39.0212 69.8953 38.8288 69.8897 38.6169C69.88 38.2874 69.9562 37.9496 69.8039 37.627C69.7762 37.5688 69.8551 37.4608 69.887 37.3681C69.8122 37.0787 69.563 36.8018 69.7748 36.4653C69.6045 36.1898 69.8122 35.8021 69.5574 35.6124C69.4633 35.1347 69.4065 34.7027 69.2888 34.2873C69.2127 34.0201 69.1545 33.7529 69.1171 33.4815C69.0881 33.2738 69.1241 33.0578 69.1074 32.8474C69.0922 32.648 69.0465 32.45 69.0133 32.252C69.0064 32.2063 69.0105 32.1495 68.9842 32.1177C68.7654 31.8436 68.7876 31.4849 68.6588 31.1762C68.5675 30.956 68.6408 30.668 68.6408 30.4548C68.5259 30.2374 68.4345 30.063 68.3279 29.8622C68.3279 29.6836 68.3404 29.4704 68.3251 29.2599C68.3044 28.9802 68.2878 28.6936 68.2116 28.4264C68.1825 28.3267 68.0925 28.2187 68.1493 28.1273C68.285 27.9044 68.2282 27.615 68.4498 27.417C68.8527 27.057 69.5824 26.7372 70.2885 27.0501C70.8091 27.2813 71.0583 27.669 71.1649 28.1938C71.1926 28.3281 71.2466 28.4582 71.2563 28.5939C71.266 28.7213 71.2992 28.8307 71.3463 28.9484C71.3851 29.0453 71.4322 29.2128 71.2688 29.2876C71.3242 29.3873 71.4142 29.4759 71.4183 29.5687C71.4335 29.9134 71.5872 30.2194 71.6551 30.549C71.7105 30.8176 71.7229 31.0959 71.8365 31.3534C71.8918 31.478 71.8378 31.7037 71.7409 31.9169C71.9431 32.0346 71.8365 32.27 71.9237 32.4597C72.0095 32.6452 72.1937 32.9166 71.9458 33.1506C71.9874 33.3458 71.9998 33.5521 72.0774 33.7307C72.1868 33.9827 72.0926 34.2998 72.3363 34.5033C72.3169 34.7886 72.4789 35.0475 72.4457 35.3438C72.4305 35.4767 72.5426 35.6235 72.6312 35.8533C72.6631 36.2438 72.5454 36.745 72.7544 37.2462C73.0286 37.3833 73.2958 37.1548 73.5838 37.1479C73.6558 37.1465 73.7306 37.0745 73.7984 37.0842C74.265 37.1424 74.7136 36.9762 75.1761 36.9804C75.2356 36.9804 75.3035 36.9707 75.3547 36.943C75.6413 36.7824 75.9528 36.7934 76.2685 36.7824C76.695 36.7685 77.1214 36.7214 77.5479 36.6896C77.757 36.673 77.9757 36.6827 78.1114 36.8544C78.2249 36.9984 78.4908 36.9568 78.506 37.2213C78.5116 37.3293 78.6542 37.3957 78.7068 37.5259C78.8217 37.8111 78.7885 38.0645 78.6929 38.3303C78.5628 38.6945 78.1737 39.0808 77.804 39.1265C77.4191 39.1735 77.0633 39.3328 76.6645 39.3452C76.3225 39.3563 75.9874 39.5059 75.6468 39.5875C75.4336 39.6388 75.2176 39.6817 75.039 39.546C74.8715 39.6069 74.7136 39.7177 74.5613 39.7094C74.0352 39.6831 73.5575 39.9392 73.0687 39.9254C73.0867 40.0901 73.1006 40.2383 73.1214 40.3851C73.1407 40.5208 73.1671 40.6537 73.1851 40.7644C73.1615 40.9334 73.0715 41.1341 73.1352 41.2214C73.2529 41.3806 73.1947 41.5301 73.2169 41.681C73.2446 41.8638 73.1671 42.0549 73.3055 42.2349C73.3526 42.2944 73.2875 42.4439 73.2695 42.5506C73.2487 42.6696 73.2252 42.7887 73.1961 42.9341C73.5077 43.0075 73.7873 43.0795 74.0698 43.139C74.2664 43.1805 74.4644 43.2165 74.6652 43.2359C74.8507 43.2539 75.0335 43.2359 75.2149 43.3301C75.3865 43.4187 75.5873 43.4838 75.7784 43.4948C76.2159 43.5184 76.6091 43.7593 77.0217 43.7302C77.1851 43.8022 77.3222 43.8645 77.4607 43.9241C77.9633 44.1401 78.1308 44.5942 78.1917 45.0691C78.2374 45.4194 78.0145 45.731 77.768 45.9566C77.5105 46.1906 77.1616 46.2903 76.8182 46.3651C76.7407 46.3817 76.6521 46.3831 76.5745 46.3651C76.1453 46.2626 75.7161 46.1602 75.291 46.0425C74.8286 45.9137 74.38 45.724 73.8843 45.7808C73.6738 45.8057 73.5007 45.6853 73.3138 45.6243C73.1311 45.5648 72.9774 45.5523 72.8264 45.7393C72.8735 46.0688 72.7157 46.3665 72.5744 46.6766C72.382 47.1017 72.2214 47.5406 72.0469 47.9726C72.0026 48.0847 71.9791 48.2121 71.9098 48.3063C71.5789 48.7493 71.4585 49.2963 71.1719 49.7629C70.9725 50.0882 70.8257 50.4455 70.5668 50.7348C70.528 50.7778 70.4879 50.8401 70.4865 50.8941C70.4768 51.1211 70.3508 51.2942 70.1805 51.3981C69.9617 51.5324 70.013 51.7899 69.8496 51.9574C69.6087 52.2039 69.4619 52.532 69.1587 52.7383C69.0244 52.8297 68.9496 53.0069 68.8402 53.1371C68.8042 53.18 68.7419 53.2008 68.6505 53.2562C68.4179 53.6259 68.2282 54.0966 67.7505 54.3348C67.6813 54.3694 67.6342 54.4483 67.5761 54.5037C66.7827 55.2638 65.9921 56.0267 65.1946 56.7827C65.0949 56.8769 64.9689 57.0098 64.8554 57.0084C64.656 57.0084 64.5771 57.1386 64.4511 57.2299C64.332 57.3185 64.3348 57.4916 64.1534 57.5539C64.0329 57.5955 63.9762 57.7976 63.8626 57.8973C63.7643 57.9859 63.6176 58.0191 63.5109 58.1008C63.3836 58.1978 63.2936 58.3625 63.1537 58.4221C62.7425 58.5965 62.5071 58.9842 62.1582 59.2127C61.6501 59.5436 61.1876 59.9562 60.5964 60.157C60.4427 60.2096 60.3181 60.348 60.1741 60.4339C59.9401 60.5737 59.7047 60.7136 59.4596 60.8312C59.2395 60.9379 59.0014 61.0057 58.8255 61.1926C58.7881 61.2328 58.7189 61.2535 58.6607 61.2618C58.2897 61.3214 58.0072 61.5734 57.6749 61.716C57.4658 61.806 57.2568 61.8794 57.0712 62.0441C56.9037 62.1923 56.6296 62.2214 56.4011 62.2975C56.3568 62.3127 56.2779 62.2795 56.2599 62.3031C56.0702 62.5481 55.7891 62.5869 55.5191 62.6437C55.0428 62.742 54.5901 62.9095 54.1345 63.0757C53.9185 63.1546 53.6804 63.1712 53.3453 63.2363C53.0906 63.3844 52.7984 63.4703 52.4273 63.4744C52.2626 63.8012 51.8984 63.7569 51.6187 63.8441C51.3778 63.9189 51.0995 63.9466 50.8364 63.9798C50.4058 64.0366 49.9503 64.0532 49.5543 64.2969C49.4173 64.3813 49.2428 64.4201 49.0794 64.4436C48.9036 64.4685 48.7222 64.4533 48.5422 64.4478C48.383 64.4436 48.2653 64.5641 48.0936 64.5544C47.5758 64.5225 47.0815 64.6582 46.5941 64.8202C46.5359 64.8396 46.4695 64.841 46.4072 64.8396C45.9502 64.8313 45.5127 64.9296 45.0683 65.0238C44.7567 65.0888 44.4189 65.0279 44.0935 65.0404C43.9412 65.0459 43.7764 64.9767 43.6366 65.1262C43.5992 65.1664 43.4649 65.1539 43.3749 65.0722C43.2614 64.9698 43.1409 65.0445 43.0592 65.1193C42.7809 65.0653 42.5012 64.9352 42.2562 64.9822C41.982 65.0348 41.7439 65.0348 41.4199 64.985C41.1831 65.0625 40.8854 65.2619 40.5296 65.057C40.4673 65.021 40.3717 65.0265 40.2956 65.039C39.8927 65.1041 39.5078 64.9573 39.1145 64.9213C38.9041 64.9019 38.7144 64.7939 38.5067 64.9338C38.4624 64.9642 38.3627 64.9642 38.317 64.9338C38.065 64.7676 37.7881 64.8701 37.5237 64.8396C37.2758 64.8105 37.0294 64.7621 36.7815 64.7468C36.5212 64.7302 36.2471 64.7939 36.0034 64.7288C35.7846 64.6693 35.5728 64.6624 35.3554 64.643C35.156 64.625 34.9469 64.6112 34.7628 64.5419C34.3723 64.3965 33.9431 64.4422 33.5582 64.2636C33.4377 64.2082 33.2688 64.2636 33.1221 64.2526C32.7981 64.2276 32.4962 64.1279 32.2069 63.9881C32.031 63.9383 31.851 63.9355 31.6641 63.8829C31.4176 63.815 31.1573 63.7084 30.8776 63.7583C30.7863 63.7749 30.6769 63.7029 30.5772 63.6683C30.2075 63.5381 29.8087 63.4564 29.4792 63.2598C29.2715 63.1352 29.0181 63.2986 28.8658 63.0826C28.4989 63.1172 28.1722 62.9427 27.7706 62.868C27.7125 62.7946 27.6225 62.681 27.6003 62.6534C27.3483 62.5814 27.1739 62.5758 27.0617 62.4886C26.861 62.3321 26.6228 62.2823 26.4068 62.1743C26.3667 62.1535 26.3307 62.1148 26.2877 62.1078C25.6245 61.9777 25.4279 61.8946 24.9018 61.5568C24.791 61.4861 24.6484 61.4598 24.5182 61.4225C24.3147 61.3629 24.107 61.3352 23.9312 61.1802C23.7996 61.0652 23.6196 60.9891 23.4493 60.9379C23.1378 60.8465 22.8651 60.6928 22.5951 60.5197C22.3915 60.3896 22.1894 60.2594 21.9277 60.2373C21.7892 60.2262 21.6438 60.1237 21.5303 60.0282C20.9972 59.5768 20.3243 59.3248 19.8287 58.8222C19.5351 58.7253 19.3357 58.5051 19.1087 58.3113C18.9038 58.1355 18.6476 58.0178 18.3887 57.8585C18.2945 57.5484 18.0758 57.3047 17.7573 57.1372C17.5953 57.0513 17.4402 56.9433 17.3018 56.8229C17.047 56.6027 16.795 56.377 16.561 56.1347C16.3478 55.9146 16.0363 55.819 15.8909 55.4937C15.787 55.2611 15.542 55.0714 15.2872 54.98C15.1515 54.9315 15.0228 54.8484 14.9978 54.7584C14.9078 54.4261 14.6115 54.2974 14.4052 54.0814C13.9636 53.6148 13.5233 53.1454 13.094 52.6691C12.9957 52.5597 12.9376 52.4116 12.8476 52.2565C12.5554 52.208 12.518 51.8619 12.309 51.6847C12.3727 51.4867 12.1954 51.4022 12.111 51.2776C11.8382 50.8719 11.6928 50.3859 11.3342 50.0342C11.3273 49.8279 11.1598 49.6909 11.1224 49.4832C11.0601 49.1398 10.8593 48.8393 10.6433 48.561C10.2626 48.0723 10.0826 47.5115 10.0507 46.8912C9.76964 46.5866 9.70733 46.192 9.64641 45.7711C9.51211 45.7185 9.37226 45.6631 9.21719 45.6036C9.18811 45.6216 9.13827 45.6728 9.08704 45.677C8.90843 45.688 8.72843 45.6797 8.54982 45.6811C8.39475 45.6825 8.26183 45.7697 8.1026 45.7905C7.80491 45.8293 7.51692 45.9414 7.22477 46.0245C7.18185 46.0369 7.13616 46.0757 7.09877 46.0688C6.7554 46.0079 6.44802 46.1643 6.15726 46.2806C5.58681 46.5091 5.12712 46.2682 4.68267 46.0037C4.46529 45.8749 4.36699 45.6105 4.27699 45.3488C4.18837 45.0913 4.13853 44.8794 4.28807 44.6399C4.31714 44.5942 4.29222 44.5139 4.29222 44.4599C4.36976 44.3824 4.44452 44.3173 4.50683 44.2425C4.71452 43.9974 4.96928 43.8313 5.28497 43.7593C5.8028 43.6402 6.33725 43.5821 6.82047 43.3356C7.25385 43.4035 7.63322 43.1293 8.05968 43.1362C8.11506 43.1362 8.16906 43.0767 8.22583 43.0712C8.32413 43.0615 8.42521 43.0712 8.5249 43.1182C8.77412 43.0296 9.02473 42.9396 9.27811 42.8496C9.27811 42.5713 9.2698 42.329 9.28088 42.0881C9.29196 41.8555 9.24211 41.6229 9.36396 41.3889C9.43042 41.2615 9.43595 41.0344 9.36396 40.9126C9.16042 40.5637 9.38611 40.2964 9.48718 39.9545C9.43595 39.9295 9.36119 39.8935 9.28642 39.8575C9.11196 39.7717 8.8835 39.8811 8.67028 39.7495C8.48059 39.6332 8.2369 39.7966 8.03198 39.6291C7.95445 39.5654 7.77999 39.6222 7.64984 39.618C7.39923 39.6111 7.15554 39.618 6.90355 39.5322C6.64186 39.4435 6.35802 39.4117 6.06864 39.4103C5.83326 39.4103 5.59788 39.3065 5.33066 39.24C5.23097 39.2843 5.12297 39.3854 4.94297 39.2594C4.73667 39.1154 4.49021 39.0074 4.24514 38.9479C3.95992 38.8786 3.91423 38.6169 3.82284 38.4369C3.74392 38.2819 3.59854 38.0687 3.76469 37.825C3.85054 37.7004 3.80346 37.4844 3.81592 37.303C4.05684 37.0967 4.25207 36.8544 4.61344 36.7588C4.92082 36.6785 5.23928 36.6328 5.49958 36.7104C5.75988 36.7879 6.00218 36.7422 6.24864 36.7824C6.36771 36.6218 6.48817 36.7865 6.60725 36.7865C6.85509 36.7865 7.07939 36.9651 7.33138 36.9139C7.58892 36.8613 7.82291 37.0801 8.02229 37.0261C8.23967 36.9665 8.38367 37.1064 8.57336 37.087C8.7672 37.0676 8.96796 37.1534 9.16735 37.1701C9.3778 37.1867 9.59103 37.1742 9.8361 37.1742C9.84856 37.0925 9.83333 36.9845 9.88041 36.9208C10.0106 36.7422 9.96902 36.5719 9.91087 36.3864C9.87902 36.2839 9.82779 36.1413 9.8721 36.0693C10.0479 35.7744 10.0216 35.4172 10.1975 35.1278C10.221 35.089 10.2515 35.0461 10.2515 35.0046C10.2473 34.6266 10.347 34.2693 10.4467 33.9121C10.4633 33.8512 10.4495 33.782 10.4495 33.7169C10.4495 33.5535 10.4287 33.3874 10.4564 33.2295C10.4785 33.0994 10.5865 32.9845 10.6073 32.8557C10.6447 32.6203 10.6447 32.378 10.6599 32.1454C10.7236 32.0235 10.7859 31.9031 10.8455 31.7923C10.7278 31.4129 10.7416 31.3105 10.9341 30.8716C11.0019 30.7165 11.0601 30.5587 11.0393 30.3759C11.0019 30.0436 11.0947 29.7307 11.2068 29.4205C11.2428 29.3208 11.2359 29.199 11.229 29.0882C11.2124 28.8002 11.3065 28.5455 11.4215 28.2866C11.5004 28.1093 11.5876 27.9363 11.6444 27.741C11.7482 27.3852 12.0708 27.1941 12.4087 27.0487C13.0054 26.7926 13.6479 26.92 14.0051 27.3921C14.1034 27.5236 14.1615 27.6856 14.2612 27.8795C14.2612 28.0858 14.2682 28.3447 14.2585 28.6036C14.2529 28.7407 14.3139 28.8888 14.174 29.0121C14.1325 29.0481 14.1339 29.1851 14.1685 29.2447C14.2765 29.4233 14.2405 29.5687 14.1726 29.757C14.0272 30.1571 14.0882 30.6099 13.8777 31.0045C13.8237 31.1056 13.8819 31.262 13.8652 31.3908C13.8514 31.4933 13.8071 31.5943 13.7697 31.6926C13.7489 31.748 13.7129 31.7992 13.7046 31.8145C13.8985 32.2686 13.5343 32.5857 13.5053 33.0329C13.4956 33.0191 13.5316 33.0689 13.5579 33.1063C13.4873 33.4732 13.4166 33.8346 13.3405 34.2306C13.2034 34.3718 13.1633 34.5823 13.1854 34.808C13.2422 35.3687 13.083 35.881 12.8573 36.3836C12.8088 36.493 12.7991 36.6259 12.7963 36.7478C12.7867 37.1382 12.8407 37.537 12.615 37.8956C12.5845 37.9427 12.6053 38.0202 12.5983 38.0839C12.5776 38.2528 12.8503 38.4203 12.5997 38.5893C12.5983 38.7762 12.6053 38.9589 12.5097 39.1389C12.4627 39.2275 12.5 39.3632 12.5014 39.4768C12.5084 39.8382 12.5208 40.1968 12.3297 40.5318C12.2799 40.6191 12.3159 40.752 12.3048 40.8627C12.2785 41.1272 12.3754 41.4013 12.212 41.6561C12.1359 41.7752 12.3297 41.9026 12.2217 42.0701C12.1691 42.1518 12.1456 42.3456 12.2716 42.4772C12.3145 42.5229 12.2688 42.6489 12.3104 42.7001C12.4211 42.8399 12.1373 42.923 12.2827 43.0753C12.3837 43.1833 12.2605 43.3038 12.2093 43.4145C12.1968 43.4408 12.2024 43.4796 12.2093 43.5115C12.309 44.0625 12.2813 44.6316 12.4377 45.1757C12.4807 45.3239 12.5 45.479 12.5471 45.7185C12.7603 46.1505 13.0206 46.6614 13.2657 47.1792C13.3294 47.3149 13.2394 47.4991 13.382 47.6195C13.3696 48.0598 13.6742 48.352 13.8971 48.676C14.012 48.8435 14.1172 48.9944 14.174 49.1993C14.2626 49.515 14.5285 49.7366 14.7223 49.9955C14.8095 50.1118 14.9272 50.2045 15.0131 50.2918C15.0643 50.4732 15.11 50.6352 15.1681 50.8428C15.4631 51.1419 15.9947 51.3136 16.0294 51.8868C16.1069 51.9353 16.1997 51.9685 16.2592 52.0322C16.5624 52.3603 16.9252 52.6317 17.1689 53.0208C17.263 53.1703 17.4541 53.2589 17.6036 53.3711C17.7019 53.4445 17.839 53.4888 17.9027 53.5829C18.145 53.9402 18.4551 54.2185 18.7971 54.4774C19.0284 54.6532 19.2194 54.8831 19.423 55.0949C19.6196 55.2984 19.8508 55.4507 20.1014 55.5823C20.2371 55.6529 20.37 55.747 20.4739 55.8578C20.6913 56.0918 20.9654 56.24 21.2271 56.4061C21.4708 56.5612 21.7228 56.7038 21.9678 56.8589C22.0163 56.8907 22.0412 56.9586 22.0814 57.0042C22.1728 57.1081 22.2489 57.259 22.3624 57.2992C22.6324 57.3947 22.8 57.601 22.9647 57.7547C23.142 57.8184 23.2984 57.8461 23.423 57.9264C23.7429 58.1341 24.1084 58.2421 24.4269 58.4664C24.7633 58.7031 25.1939 58.8056 25.5802 58.9731C25.7602 59.0507 25.9568 59.1171 26.1022 59.2417C26.3113 59.4203 26.5633 59.5048 26.807 59.5436C27.0645 59.5851 27.2639 59.7083 27.4757 59.8246C27.5297 59.8551 27.5699 59.941 27.6197 59.9437C27.8786 59.9631 28.0448 60.1777 28.2815 60.2373C28.4325 60.276 28.5834 60.2331 28.7468 60.2926C29.0278 60.3965 29.2964 60.5557 29.6052 60.5834C29.6177 60.5834 29.6301 60.6166 29.6398 60.6152C30.1147 60.5626 30.4803 60.87 30.9012 60.9919C31.1061 61.0514 31.3304 61.0431 31.5215 61.2258C31.9202 61.1206 32.2899 61.338 32.679 61.4294C32.7745 61.4515 32.931 61.4723 32.9711 61.5249C33.0916 61.6828 33.1553 61.4903 33.2453 61.5125C33.4668 61.5678 33.6953 61.6025 33.914 61.6689C34.3294 61.7963 34.7393 61.9154 35.1851 61.914C35.4385 61.914 35.6919 62.0095 35.9314 62.0608C36.0975 62.0483 36.2761 61.9874 36.4201 62.0331C36.7511 62.1383 37.0778 62.2172 37.4267 62.1992C37.6386 62.1881 37.885 62.1286 38.0526 62.2144C38.2589 62.3197 38.3904 62.1577 38.569 62.1771C38.7767 62.2006 39.001 62.3294 39.2198 62.1964C39.3721 62.4124 39.6725 62.1701 39.8235 62.3917C40.2056 62.3723 40.5697 62.5634 40.9561 62.4886C41.0585 62.4678 41.1554 62.4194 41.2579 62.3944C41.6345 62.3031 41.9903 62.3792 42.3642 62.4678C42.7034 62.5495 43.0758 62.4886 43.4331 62.49C43.5715 62.3183 43.7626 62.4097 43.9301 62.3931C44.178 62.3681 44.4369 62.4484 44.6737 62.2961C44.8052 62.2117 44.9353 62.3418 45.089 62.3266C45.4158 62.292 45.7259 62.1563 46.0666 62.1881C46.2438 62.2048 46.4293 62.1175 46.6121 62.1023C46.8225 62.0857 47.0856 62.1757 47.2338 62.0788C47.4068 61.9652 47.6118 62.0801 47.7654 61.9154C47.8194 61.8572 48.023 61.9375 48.257 61.9666C48.2528 61.968 48.3525 61.9361 48.4536 61.9029C48.5394 61.8738 48.6488 61.8683 48.707 61.8115C48.934 61.5845 49.2497 61.5568 49.5156 61.5318C49.9226 61.4958 50.2951 61.3352 50.6938 61.2798C50.788 61.2674 50.9029 61.2092 51.0054 61.2231C51.3363 61.266 51.6118 61.1331 51.8874 60.9849C52.1601 60.8382 52.4384 60.7343 52.7583 60.7191C52.9452 60.7108 53.1266 60.5945 53.3135 60.5349C53.6887 60.4173 54.0681 60.3106 54.4419 60.1888C54.9874 60.0102 55.5039 59.7637 56.0162 59.5048C56.2294 59.3968 56.4426 59.293 56.6932 59.2431C56.9619 59.1905 57.2249 59.0133 57.4465 58.8361C57.8965 58.4761 58.4087 58.2628 58.946 58.0842C59.0872 58.0371 59.2104 57.9319 59.3323 57.8392C59.6424 57.6024 59.929 57.3255 60.2586 57.1219C60.7847 56.7966 61.261 56.4186 61.6874 55.9741C61.8342 55.8204 62.0142 55.747 62.2344 55.7318C62.3299 55.3649 62.5708 55.0991 62.917 54.9717C63.1385 54.8914 63.2908 54.7543 63.45 54.6034C63.6328 54.4289 63.7837 54.2157 64.0302 54.1174C64.0579 54.1063 64.08 54.0758 64.0994 54.0495C64.1922 53.9263 64.2711 53.7879 64.3805 53.6799C64.4885 53.5719 64.6422 53.5068 64.7474 53.396C64.9772 53.1551 65.1877 52.8948 65.4078 52.6456C65.4618 52.5847 65.5117 52.503 65.5823 52.4767C66.0683 52.2967 66.294 51.8591 66.564 51.477C66.7315 51.2402 66.9336 51.0436 67.1233 50.8304C67.5138 50.3915 67.8655 49.9387 68.0441 49.353C68.1479 49.0138 68.3958 48.7189 68.5758 48.4018C68.6658 48.2426 68.7405 48.0792 68.8444 47.9241C68.9856 47.7151 69.0521 47.4575 69.167 47.2291C69.2819 46.9992 69.4051 46.7763 69.5034 46.5368C69.7125 46.0272 69.8039 45.4886 69.9604 44.9667C69.7859 44.6537 70.0573 44.4017 70.1085 44.1262C70.1583 43.8562 70.175 43.5945 70.1763 43.3287C70.1791 43.013 70.2954 42.725 70.3286 42.3526L70.3342 42.3595Z" fill="#231F20"/>
<path d="M31.4866 20.1162C31.5116 20.0705 31.5669 20.0152 31.5642 19.9639C31.5434 19.6593 31.7165 19.4586 31.92 19.2799C32.226 19.0113 32.5971 18.859 32.9917 18.8092C33.1648 18.7884 33.3517 18.7829 33.4804 18.6915C33.6895 18.5433 33.9304 18.632 34.152 18.5364C34.3555 18.4506 34.6241 18.5184 34.9162 18.5184C34.775 18.1363 34.7487 17.7818 34.4483 17.4966C34.2669 17.3249 34.235 17.0051 34.1049 16.7683C33.7546 16.1314 33.4721 15.4571 33.054 14.8562C32.9252 14.6707 32.8795 14.4422 32.7618 14.2414C32.6248 14.0061 32.4669 13.8067 32.2938 13.6059C32.1955 13.4924 32.1014 13.3581 32.0599 13.2168C31.9712 12.9122 31.8342 12.6478 31.6016 12.4262C31.5143 12.3432 31.4423 12.2338 31.3939 12.123C31.1557 11.5816 30.7514 10.9295 30.4247 10.5681C30.354 10.4892 30.3097 10.3881 30.2488 10.2995C30.1699 10.1846 30.1007 10.0614 30.0051 9.96168C29.7767 9.72354 29.587 9.45908 29.407 9.18216C29.3198 9.04924 29.1841 8.94955 29.0747 8.82909C29.0041 8.75017 28.9418 8.66294 28.8379 8.53002C28.6981 8.46356 28.5098 8.39433 28.3782 8.15895C28.201 7.84465 27.8493 7.67019 27.5558 7.45835C27.1598 7.17174 26.6932 6.99175 26.3207 6.66499C26.2764 6.62622 26.2197 6.59437 26.1629 6.57776C25.8721 6.48637 25.5731 6.4213 25.3446 6.18869C25.1868 6.02669 24.9403 6.08207 24.7382 6.00731C24.4709 5.90762 24.2176 5.74424 23.9365 5.70547C23.6485 5.66531 23.3508 5.70685 23.0587 5.69301C22.9077 5.6847 22.761 5.61824 22.6101 5.60301C22.4494 5.58639 22.2833 5.58639 22.1227 5.60301C21.9718 5.61824 21.825 5.67778 21.6741 5.69301C21.5135 5.70962 21.3487 5.69716 21.1839 5.69716C20.8336 5.90485 20.4501 6.04331 20.0804 6.21084C19.5404 6.45453 19.0641 6.8339 18.6723 7.29774C18.6972 7.50266 18.4618 7.44312 18.3995 7.56635C18.3441 7.67435 18.2749 7.78096 18.1932 7.87096C17.9634 8.12572 17.7474 8.38464 17.6823 8.73633C17.6768 8.7654 17.6602 8.79448 17.6422 8.81663C17.3168 9.21124 17.1382 9.67646 16.9803 10.1555C16.9249 10.3244 16.7893 10.4657 16.7076 10.6291C16.5636 10.9198 16.6273 11.266 16.4694 11.5567C16.3143 11.842 16.3406 12.159 16.3019 12.4678C16.2659 12.7461 16.205 13.0507 15.953 13.239C15.9419 13.275 15.9267 13.3041 15.9253 13.3332C15.892 14.0199 15.899 14.7122 15.8076 15.392C15.7674 15.6911 15.8062 16.0539 15.5473 16.2892C15.4822 16.4942 15.5944 16.6963 15.449 16.904C15.3451 17.0535 15.4421 17.2848 15.3576 17.4966C15.2454 17.7763 15.2537 18.1127 15.2454 18.4257C15.2357 18.8023 15.179 19.1636 15.0627 19.5236C15.0142 19.6746 14.9741 19.8753 15.1264 20.0041C15.0973 20.0802 15.0502 20.1481 15.0488 20.2187C15.0405 20.5275 15.0558 20.8376 15.0419 21.1464C15.0336 21.3305 15.0904 21.5147 14.9616 21.7016C14.9007 21.7902 14.9464 21.9882 15.0004 22.1114C15.0807 22.2942 15.0544 22.4396 14.9311 22.614C15.2053 22.8633 14.9948 23.1305 14.9076 23.3714C14.7442 23.82 14.5075 23.9848 13.9024 24.1925C13.5313 24.3198 13.2184 24.2298 12.9207 24.126C12.5483 23.9958 12.263 23.6857 12.1218 23.3063C11.9723 22.902 11.9764 22.3731 12.0983 21.9674C12.1454 21.8137 12.1398 21.6061 12.1343 21.4177C12.1177 20.9608 12.0609 20.5012 12.198 20.0373C12.281 19.7521 12.209 19.4226 12.2146 19.1138C12.2187 18.9116 12.191 18.7137 12.3018 18.5143C12.3877 18.3592 12.2617 18.1543 12.3918 17.9632C12.4846 17.8261 12.3517 17.5866 12.5178 17.4371C12.4777 17.3595 12.4126 17.2903 12.4167 17.2252C12.425 17.1061 12.4873 16.9926 12.504 16.8735C12.522 16.7475 12.468 16.5828 12.5303 16.4955C12.677 16.2879 12.5192 16.0165 12.7033 15.8309C12.7366 15.7977 12.7643 15.7576 12.767 15.7548C12.8141 15.4419 12.8736 15.165 12.8944 14.8853C12.9152 14.6097 12.8986 14.3314 12.8986 14.0545C12.8986 14.0227 12.8875 13.9839 12.9013 13.959C13.2059 13.4135 13.1132 12.7585 13.379 12.2019C13.4109 12.1355 13.3859 12.0413 13.3859 11.961C13.3859 11.8627 13.3555 11.752 13.3915 11.6703C13.5299 11.356 13.5078 11.0084 13.6199 10.69C13.6712 10.546 13.6767 10.3854 13.6878 10.3189C13.8082 9.93676 14.0173 9.69169 14.0907 9.36631C14.1295 9.19739 14.225 9.00494 14.3524 8.83879C14.5351 8.60202 14.6528 8.31541 14.7968 8.04957C14.9658 7.73804 15.1499 7.44312 15.3659 7.15513C15.593 6.8519 15.8214 6.5376 16.0208 6.20946C16.2506 5.83146 16.4888 5.47009 16.8986 5.25963C16.954 5.23194 17.0122 5.17794 17.0343 5.12256C17.1908 4.74457 17.5549 4.62549 17.8595 4.41919C18.2652 4.14504 18.7775 4.04258 19.1043 3.64382C19.5183 3.49982 19.9046 3.27137 20.3601 3.24921C20.4944 3.24229 20.6259 3.18691 20.7602 3.15645C20.9098 3.12183 21.0579 3.07891 21.2088 3.06229C21.3542 3.04568 21.519 3.10106 21.645 3.05122C21.9718 2.92107 22.3041 2.95706 22.6336 2.96676C23.0933 2.97922 23.5474 3.05952 24.0099 3.07614C24.3962 3.09137 24.7769 3.25475 25.1605 3.35306C25.2615 3.53721 25.454 3.41121 25.5966 3.48044C25.7323 3.54551 25.8971 3.5469 26.1158 3.58844C26.3927 3.76012 26.725 3.98027 27.0698 4.17412C27.211 4.25442 27.3813 4.31673 27.5419 4.32365C27.8562 4.3375 28.1346 4.48011 28.3187 4.67672C28.5873 4.96056 28.9431 5.09625 29.2311 5.34132C29.4347 5.51439 29.6424 5.68747 29.8334 5.87577C30.1588 6.19423 30.4967 6.48776 30.9148 6.68714C31.0533 6.75221 31.2056 6.88375 31.254 7.02082C31.3094 7.17451 31.452 7.23267 31.5046 7.35728C31.5628 7.49297 31.7026 7.53451 31.7732 7.63143C32.0197 7.97065 32.3188 8.25726 32.6095 8.55356C32.6289 8.57294 32.6261 8.61725 32.6455 8.63525C32.7798 8.75709 32.6926 8.97171 32.8491 9.09216C32.9778 9.19047 33.0886 9.3137 33.1952 9.43693C33.2547 9.50477 33.3032 9.58785 33.3337 9.67231C33.4514 9.99907 33.6895 10.2455 33.8875 10.5183C33.9415 10.5917 33.9844 10.6734 34.026 10.7537C34.3818 11.446 34.7626 12.1272 35.2444 12.7378C35.3953 12.9302 35.4161 13.167 35.5532 13.3442C35.6972 13.5311 35.8827 13.6835 35.8702 13.9479C36.1458 14.1376 36.1153 14.5031 36.3327 14.7385C36.4559 14.8728 36.4767 15.0985 36.557 15.2757C36.6373 15.4543 36.7314 15.6274 36.827 15.7991C36.9599 16.0372 37.151 16.2574 37.2244 16.5122C37.2867 16.7309 37.3891 16.8985 37.511 17.0812C37.7034 17.3706 37.8197 17.7071 38.0233 17.9812C38.152 18.02 38.267 18.0546 38.4165 18.0989C38.8056 17.9314 39.2583 18.0407 39.7028 18.0227C40.1583 18.0047 40.6194 18.0532 41.0694 18.0047C41.2964 17.9798 41.5041 18.0407 41.7229 18.0241C41.9652 18.0061 42.2116 18.02 42.4553 18.02H43.1878C43.4315 18.02 43.6765 18.013 43.9202 18.0241C44.0074 18.0283 44.0919 18.0781 44.1874 18.1114C44.2857 18.0754 44.3993 18.0338 44.5599 17.9757C44.6277 17.8012 44.8299 17.6544 44.888 17.3858C44.9351 17.1629 45.1843 16.9912 45.2757 16.7683C45.4488 16.3446 45.6662 15.95 45.9016 15.5596C46.0331 15.3422 46.1051 15.0902 46.22 14.8617C46.4152 14.4699 46.6022 14.0739 46.8085 13.6876C46.8888 13.5381 46.9981 13.4038 47.1117 13.2362C47.0826 12.9607 47.3166 12.7572 47.4731 12.5495C47.8344 12.069 48.1404 11.5636 48.4021 11.025C48.5143 10.7924 48.6569 10.5723 48.8327 10.366C49.0044 10.1638 49.183 9.94092 49.2606 9.66815C49.3464 9.36908 49.6469 9.24862 49.8379 8.96755C49.8615 8.78755 49.9432 8.58125 50.1218 8.41095C50.3392 8.20326 50.5718 8.00803 50.7158 7.72973C50.7975 7.57189 51.0148 7.54835 51.0951 7.35728C51.1657 7.19113 51.3084 7.0499 51.4344 6.91283C51.5174 6.82144 51.6213 6.74391 51.7279 6.6816C52.0367 6.49884 52.3246 6.28976 52.5891 6.04746C52.9062 5.7567 53.1983 5.42024 53.5597 5.19732C53.9045 4.9841 54.1938 4.70164 54.5372 4.49395C54.6521 4.42473 54.7878 4.33473 54.9097 4.34165C55.3306 4.36519 55.6144 4.06335 55.9647 3.92904C56.1738 3.84874 56.3483 3.67843 56.4466 3.61197C56.9104 3.50951 57.2787 3.45552 57.6276 3.34198C57.8768 3.26167 58.1413 3.22567 58.3739 3.13845C58.6342 3.04152 58.8751 3.09414 59.123 3.06091C59.5633 3.00137 60.0036 2.92245 60.4508 2.96399C60.7152 2.98891 60.9769 3.04291 61.2414 3.05537C61.5086 3.06783 61.7537 3.14537 62.0015 3.22983C62.0444 3.24506 62.0915 3.2506 62.1386 3.25475C62.5775 3.29213 62.8669 3.38767 63.3986 3.6369C63.6173 3.73936 63.7433 3.94704 63.969 4.03012C64.1656 4.10212 64.3525 4.20735 64.5395 4.30288C64.6738 4.37211 64.8053 4.44826 64.9355 4.5258C65.1611 4.66011 65.4048 4.76949 65.5031 5.05056C65.5322 5.13363 65.6181 5.22086 65.6997 5.25825C66.0957 5.43963 66.3159 5.79547 66.5499 6.125C66.8614 6.5653 67.1245 7.03882 67.4817 7.45005C67.6368 7.62866 67.7212 7.86958 67.8334 8.0828C67.9732 8.35003 68.084 8.63802 68.2585 8.88032C68.354 9.01324 68.4052 9.14339 68.4606 9.28877C68.5838 9.61138 68.7361 9.9243 68.876 10.2386C68.9424 10.5197 69.0131 10.8021 69.0768 11.086C69.1266 11.3103 69.1972 11.536 69.2055 11.763C69.2152 12.0787 69.2803 12.3736 69.3841 12.6685C69.4354 12.8125 69.4395 12.9732 69.4575 13.1268C69.5115 13.6198 69.7926 14.0753 69.6998 14.5904C69.6292 14.9794 69.877 15.3353 69.7898 15.7105C70.075 15.9486 69.9241 16.3169 70.093 16.5786C69.992 16.8611 70.3353 17.1435 70.0889 17.4315C70.1221 17.4966 70.1775 17.5603 70.1886 17.6309C70.309 18.3966 70.4503 19.1623 70.3866 19.9445C70.5209 20.3128 70.4807 20.6978 70.4835 21.0771C70.4835 21.2571 70.46 21.4344 70.4323 21.6144C70.4073 21.775 70.55 21.9536 70.5763 22.1294C70.604 22.3205 70.5763 22.5199 70.5846 22.7151C70.6123 23.316 70.262 23.7106 69.8521 24.0734C69.5004 24.1274 69.1903 24.3711 68.7874 24.2063C68.5645 24.1149 68.3374 24.0651 68.1186 23.928C67.6977 23.6649 67.6506 23.2482 67.5592 22.8411C67.5454 22.7816 67.6132 22.704 67.652 22.6126C67.5869 22.4673 67.4762 22.3108 67.6008 22.11C67.6534 22.0256 67.6769 21.8844 67.6437 21.7916C67.472 21.3056 67.5897 20.8058 67.5509 20.3142C67.5426 20.2104 67.5163 20.1093 67.4956 19.9875C67.6132 19.9085 67.5869 19.7244 67.5399 19.6178C67.4568 19.4336 67.5149 19.2246 67.4402 19.0736C67.3446 18.884 67.3709 18.7053 67.3571 18.5198C67.3419 18.319 67.3793 18.1197 67.2685 17.9203C67.1826 17.7652 67.346 17.534 67.1633 17.3789C67.1259 17.0189 67.0871 16.6589 67.0483 16.2865C66.9099 16.1605 66.903 15.9763 66.8573 15.7936C66.7493 15.3671 66.8296 14.931 66.7534 14.5142C66.6787 14.1002 66.6828 13.6931 66.669 13.2722C66.417 13.0687 66.3062 12.7558 66.2979 12.465C66.2854 12.0815 66.2259 11.7146 66.0736 11.3795C65.967 11.1469 66.0542 10.881 65.8936 10.6706C65.8701 10.6401 65.9074 10.5543 65.8825 10.5321C65.7025 10.366 65.6278 10.1583 65.5668 9.92569C65.5101 9.70969 65.3121 9.55185 65.2941 9.30401C65.2871 9.21262 65.1764 9.12678 65.1071 9.04232C64.8939 8.77925 64.8662 8.42064 64.6253 8.16311C64.4093 7.93327 64.2736 7.63004 63.9953 7.45005C63.9635 7.42928 63.9593 7.37112 63.9344 7.33651C63.5716 6.84637 63.0732 6.52237 62.5554 6.22469C62.439 6.15823 62.302 6.13054 62.1746 6.08346C61.9171 5.98792 61.6651 5.88269 61.4685 5.71654C61.0268 5.67501 60.6003 5.6487 60.178 5.58916C59.9136 5.55178 59.6906 5.70824 59.4359 5.69439C59.1922 5.68193 58.9457 5.67501 58.7034 5.69716C58.5567 5.71101 58.4099 5.77193 58.2728 5.83285C58.0222 5.94362 57.7827 6.07377 57.4961 6.08761C57.3978 6.09315 57.2829 6.14577 57.2109 6.21361C57.0461 6.36868 56.8522 6.43238 56.6404 6.49745C56.4604 6.55283 56.2776 6.64145 56.1143 6.76052C55.7806 7.00421 55.4427 7.25482 55.0744 7.4362C54.8723 7.53589 54.7532 7.71727 54.5497 7.81558C54.3683 7.90281 54.2188 8.09249 54.1135 8.30434C54.0568 8.41926 53.8698 8.4691 53.6926 8.57848C53.6788 8.60064 53.6442 8.69063 53.5832 8.75156C53.3036 9.02986 53.1097 9.38847 52.8425 9.65846C52.4922 10.0129 52.3191 10.4934 51.9287 10.8077C51.8622 10.8617 51.8387 10.9655 51.786 11.0389C51.6545 11.2272 51.5617 11.4377 51.433 11.6301C51.3388 11.7686 51.163 11.8876 51.1865 12.1175C51.1962 12.2116 51.0758 12.3349 50.9899 12.4179C50.7587 12.6395 50.6202 12.9025 50.5316 13.2085C50.4915 13.3498 50.3959 13.4841 50.2976 13.5976C50.1245 13.7984 49.8947 13.9562 49.8518 14.2456C49.6039 14.3868 49.6746 14.7011 49.5056 14.8839C49.3339 15.068 49.2647 15.3034 49.1567 15.5208C49.0487 15.7382 48.8507 15.9251 48.794 16.1508C48.7303 16.4014 48.5184 16.5495 48.4589 16.7988C48.4215 16.9525 48.2969 17.0812 48.2803 17.264C48.2706 17.372 48.1709 17.4828 48.0878 17.57C47.9203 17.7458 47.7929 17.9272 47.7957 18.1861C47.7957 18.2678 47.7264 18.3495 47.6711 18.4713C47.8067 18.481 47.912 18.4963 48.0172 18.4949C48.3786 18.4907 48.7247 18.5641 49.0598 18.6929C49.3339 18.7981 49.6289 18.823 49.9099 18.8715C50.2256 18.9255 50.4388 19.1166 50.6715 19.2786C50.9096 19.4433 51.0688 19.6829 51.0314 20.0069C51.0273 20.0387 51.091 20.0775 51.1118 20.101C51.0813 20.1592 51.0259 20.2159 51.0301 20.2672C51.0605 20.6202 50.8348 20.8376 50.5981 21.0135C50.3281 21.2156 50.0041 21.3291 49.6579 21.3305C49.4018 21.3305 49.1193 21.3748 48.8978 21.2807C48.6707 21.1851 48.4409 21.307 48.2124 21.1561C48.0587 21.0536 47.786 21.163 47.5797 21.0425C47.3955 20.9359 47.1546 20.9858 46.9746 20.8501C46.9635 20.8418 46.9428 20.8418 46.9289 20.8445C46.5731 20.9193 46.2463 20.7255 45.8932 20.7393C45.6136 20.7504 45.3325 20.7808 45.0473 20.6645C44.9185 20.6119 44.7219 20.6188 44.5391 20.7075C44.3924 20.7795 44.1736 20.7171 43.9894 20.6978C43.6654 20.6645 43.3539 20.407 43.0161 20.6479C42.7045 20.6008 42.3792 20.7407 42.0746 20.5565C42.0026 20.5136 41.8835 20.5496 41.7852 20.5496C41.4764 20.5496 41.1663 20.5371 40.8575 20.5538C40.5612 20.569 40.2663 20.6299 39.9686 20.6424C39.7858 20.6493 39.6086 20.6562 39.4162 20.5648C39.1683 20.4458 38.89 20.6161 38.6449 20.6853C38.4511 20.7407 38.2462 20.7836 38.0911 20.7296C37.8377 20.641 37.6342 20.6202 37.378 20.7324C37.2133 20.8044 36.9917 20.7365 36.7979 20.7476C36.1471 20.7836 35.5033 20.8611 34.8886 21.0924C34.8456 21.1076 34.8041 21.1339 34.7612 21.1353C34.559 21.1436 34.3638 21.1464 34.1616 21.2239C33.9969 21.2876 33.803 21.2474 33.6147 21.3208C33.3863 21.4108 32.5569 21.3527 32.3465 21.2267C31.9823 21.0065 31.5572 20.8071 31.5642 20.2685C31.5642 20.2145 31.5116 20.1605 31.4866 20.1121V20.1162Z" fill="#231F20"/>
<path d="M50.918 42.7709C50.9581 43.2818 51.0052 43.8689 51.0454 44.3757C50.8515 44.7938 50.6605 45.1247 50.5442 45.4806C50.4348 45.817 50.2562 46.0884 50.0236 46.3418C49.928 46.4456 49.8145 46.5467 49.7563 46.6713C49.5528 47.1088 49.1693 47.3844 48.837 47.7001C48.7331 47.7984 48.5933 47.8884 48.4728 47.9867C48.3524 48.085 48.218 48.1639 48.1017 48.2663C47.8068 48.5239 47.4288 48.672 47.1755 48.9863C47.1242 49.05 47.0135 49.104 46.9345 49.0985C46.6479 49.0805 46.4389 49.2425 46.2132 49.3712C45.8393 49.5845 45.424 49.6731 45.0183 49.788C44.8563 49.8337 44.6887 49.8669 44.5212 49.8849C44.3606 49.9015 44.1958 49.8891 44.0324 49.8877C43.8968 50.0358 43.7251 50.0802 43.5271 50.0885C43.3762 50.0954 43.2294 50.1591 43.0785 50.1785C42.9248 50.1978 42.7725 50.2352 42.6271 50.2588C42.3917 50.2975 42.1273 50.3515 41.8808 50.1965C41.788 50.1369 41.6233 50.1605 41.4987 50.1854C40.9531 50.2934 40.9545 50.2975 40.4062 50.1826C40.3591 50.1729 40.3079 50.184 40.2594 50.1812C39.8012 50.1494 39.3401 50.1328 38.8832 50.0774C38.645 50.0483 38.3695 50.0123 38.1923 49.8739C37.9223 49.6634 37.6066 49.698 37.32 49.6122C36.9724 49.5083 36.618 49.4294 36.2829 49.2799C36.1458 49.2189 35.9949 49.1899 35.8537 49.1386C35.6515 49.0639 35.4771 48.9448 35.3012 48.816C34.8942 48.5183 34.4234 48.3037 34.0385 47.9867C33.5581 47.5907 33.1067 47.1448 32.7508 46.6228C32.5016 46.2559 32.2828 45.8669 32.0184 45.5124C31.8509 45.2881 31.8772 45.0181 31.7678 44.7827C31.6778 44.5889 31.6515 44.3687 31.6556 44.1431C31.6612 43.8301 31.6639 43.5214 31.5809 43.2015C31.4812 42.8222 31.711 42.4539 31.7941 42.08C31.8869 41.6633 32.1818 41.3586 32.3895 41.0083C32.5542 40.7287 32.7647 40.4739 32.9751 40.2261C33.0734 40.1111 33.2105 40.0184 33.3476 39.9505C33.5428 39.8536 33.7159 39.7345 33.8945 39.6113C34.1382 39.4438 34.4345 39.351 34.7128 39.2333C34.8789 39.1627 35.0493 39.099 35.2223 39.0492C35.4619 38.9813 35.7 38.9149 35.9589 38.9329C36.2511 38.9522 36.546 38.9564 36.8381 38.9329C37.3338 38.8941 37.7949 39.0658 38.267 39.1544C38.5495 39.207 38.8209 39.3233 39.1199 39.333C39.2542 39.3372 39.3858 39.3953 39.5201 39.4258C39.7042 39.4687 39.8718 39.6016 40.085 39.4396C40.1528 39.387 40.3398 39.5061 40.4741 39.5213C40.8507 39.5628 41.2314 39.5712 41.6053 39.6293C41.8282 39.6639 42.0234 39.7927 42.2685 39.6432C42.4651 39.5241 42.7475 39.7318 42.9539 39.531C42.9622 39.5227 42.9843 39.5227 42.9995 39.5255C43.4038 39.6002 43.7583 39.3856 44.1391 39.3261C44.2415 39.3095 44.3384 39.2569 44.4367 39.2195C44.5074 39.1932 44.5738 39.1447 44.6458 39.1364C45.2647 39.0685 45.8864 39.0339 46.5109 39.0242C46.9622 39.0173 47.3762 39.1198 47.7819 39.2693C48.3939 39.4964 48.945 39.8287 49.4088 40.2994C49.5279 40.4199 49.6234 40.5681 49.8131 40.6221C49.9059 40.6497 49.9834 40.7674 50.0457 40.8602C50.216 41.1136 50.3503 41.3877 50.5262 41.6411C50.6494 41.8183 50.6632 42.0689 50.7338 42.2849C50.7809 42.4275 50.8405 42.566 50.9208 42.7723L50.918 42.7709ZM46.4998 45.4252C46.3821 45.3823 46.2921 45.3615 46.2132 45.3186C45.9196 45.1621 45.6358 44.9849 45.3367 44.8409C45.0764 44.7149 44.812 44.6055 44.506 44.5986C44.2983 44.5944 44.0837 44.5266 43.8857 44.4546C43.138 44.1846 42.3543 44.1126 41.5748 44.0267C41.1165 43.9769 40.6679 44.1735 40.1999 44.1237C39.9535 44.0974 39.6932 44.078 39.4592 44.2164C39.2182 44.0932 39.1338 44.3674 38.9579 44.4255C38.6589 44.5252 38.3653 44.4975 38.0718 44.5127C38.033 44.546 38.0012 44.593 37.9596 44.6055C37.655 44.6941 37.3934 44.8741 37.0707 44.9461C36.6844 45.0333 36.3328 45.2701 36.0268 45.4127C35.9118 45.5719 35.8329 45.6813 35.7651 45.7741C36.5474 46.5467 37.536 46.9136 38.5689 47.3636C38.7793 47.3636 39.0839 47.3082 39.3567 47.3774C39.707 47.4674 40.0462 47.5547 40.4104 47.545C40.5627 47.5408 40.7136 47.5145 40.8784 47.5921C41.0251 47.6613 41.2231 47.6184 41.3962 47.6405C41.5637 47.6613 41.7271 47.7028 41.8933 47.7361C41.9085 47.7388 41.9279 47.7402 41.9417 47.7361C42.1273 47.6724 42.3073 47.5934 42.4969 47.545C42.6908 47.4951 42.8929 47.4467 43.0909 47.4494C43.5506 47.4564 43.9674 47.2944 44.398 47.1808C44.5766 47.1338 44.7414 47.0742 44.902 46.9787C45.0667 46.879 45.2606 46.7793 45.4447 46.7724C45.6663 46.7655 45.7466 46.5661 45.9307 46.5148C46.1121 46.4636 46.7199 45.8835 46.8224 45.7312C46.7061 45.6204 46.5898 45.5096 46.5025 45.4266L46.4998 45.4252Z" fill="#231F20"/>
<path d="M22.8835 46.3514C22.5097 46.1368 22.1262 45.8875 21.7177 45.6881C21.2926 45.4805 20.9673 45.2022 20.8025 44.748C20.7471 44.5943 20.653 44.4545 20.6031 44.2966C20.4979 44.1429 20.4023 43.9823 20.2847 43.8397C20.1434 43.6694 20.1448 43.4742 20.1199 43.2693C20.0714 42.8733 20.0133 42.4718 19.8956 42.0924C19.8264 41.8708 19.8291 41.6424 19.7488 41.4222C19.6602 41.1786 19.6588 40.9002 19.6422 40.6372C19.6256 40.3783 19.6491 40.1152 19.6353 39.8563C19.6242 39.6569 19.6561 39.463 19.5605 39.2526C19.4913 39.1003 19.5702 38.8497 19.6464 38.6711C19.7737 38.3761 19.7391 38.0771 19.7281 37.7794C19.7211 37.5925 19.7696 37.4139 19.8707 37.3017C20.1199 37.0262 20.1628 36.669 20.3165 36.3574C20.4647 36.0584 20.556 35.7316 20.7928 35.4796C20.8648 35.4034 20.9216 35.3065 20.9659 35.211C21.2193 34.6599 21.5959 34.2639 22.2189 34.1407C22.3463 34.1158 22.482 34.0396 22.5748 33.9469C22.8877 33.6339 23.3474 33.681 23.6963 33.4623C24.1421 33.5024 24.5949 33.3819 25.0366 33.5259C25.139 33.5592 25.2567 33.5633 25.3647 33.5564C25.5904 33.5398 25.7912 33.6243 25.9892 33.7059C26.2813 33.825 26.543 34.0119 26.8573 34.0881C27.0276 34.1296 27.3405 34.4024 27.4637 34.5976C27.5648 34.7568 27.7753 34.7748 27.8583 34.9618C27.9248 35.1141 28.0356 35.2581 28.1588 35.3716C28.2848 35.4893 28.3056 35.6374 28.3734 35.7731C28.4482 35.9199 28.3942 36.1414 28.6033 36.2162C28.7943 36.6634 29.0408 37.094 29.0255 37.6049C29.0228 37.7157 29.0851 37.8168 29.1045 37.9109C29.1474 38.1214 29.2914 38.3194 29.2208 38.5506C29.3994 39.0657 29.2872 39.5987 29.3191 40.1221C29.326 40.2287 29.3426 40.3298 29.3786 40.4378C29.434 40.6026 29.3786 40.8047 29.3648 40.9902C29.3606 41.0498 29.3232 41.1066 29.3205 41.1661C29.3108 41.3849 29.3108 41.5953 29.2319 41.8141C29.1612 42.0121 29.2679 42.2516 29.128 42.4579C29.0906 42.5133 29.1114 42.6185 29.1239 42.6974C29.1585 42.8968 29.0643 43.0588 28.9868 43.2277C28.9176 43.3787 28.7888 43.5088 28.8248 43.6999C28.8317 43.7373 28.8026 43.7885 28.7777 43.8245C28.4399 44.3382 28.228 44.9335 27.7462 45.3545C27.533 45.54 27.3031 45.6909 27.0636 45.8349C26.8933 45.9374 26.7022 45.9914 26.5499 46.1368C26.4613 46.2212 26.3007 46.2351 26.1691 46.2669C25.8258 46.3514 25.481 46.4261 25.1307 46.4884C24.8455 46.5383 24.5686 46.5494 24.2875 46.559C23.9593 46.5701 23.634 46.5757 23.3266 46.4012C23.2144 46.3375 23.0483 46.3666 22.8821 46.35L22.8835 46.3514ZM22.6703 38.0535C22.6523 38.4454 22.7478 38.8968 22.4778 39.2969C22.4557 39.3301 22.4557 39.4049 22.4778 39.4395C22.6745 39.7538 22.536 40.0972 22.5692 40.4253C22.5886 40.6178 22.5097 40.8463 22.5872 41.0027C22.698 41.2256 22.5983 41.4582 22.6828 41.6465C22.7852 41.8764 22.7395 42.1076 22.7783 42.3208C23.0331 42.5341 23.0912 42.7999 23.0566 43.1017C23.346 43.2734 23.3903 43.6888 23.7517 43.7802C24.084 43.8633 24.4135 43.9754 24.743 43.9186C24.9978 43.7774 25.2456 43.6611 25.4727 43.5102C25.7275 43.3413 25.8479 43.0588 25.9933 42.7653C26.0002 42.3471 26.003 42.3388 26.2771 42.0121C26.2896 41.3752 26.4475 40.7618 26.3865 40.136C26.5139 39.9186 26.4101 39.6818 26.3616 39.4921C26.3187 39.3218 26.2951 39.1584 26.2924 38.9895C26.2896 38.7846 26.2979 38.5797 26.1899 38.3969C26.0792 38.2114 26.0916 38.0079 26.093 37.8874C25.9144 37.4956 25.7538 37.1813 25.8008 36.842C25.6029 36.6413 25.4325 36.4682 25.2622 36.2951C24.9189 36.3394 24.6779 36.0639 24.3996 36.0376C24.2017 36.0957 24.0286 36.1497 23.8527 36.1968C23.5412 36.2813 23.3418 36.5236 23.2767 36.7922C23.2144 37.0497 23.1314 37.2588 22.9486 37.4416C22.9001 37.49 22.8974 37.5814 22.8655 37.6492C22.8088 37.7725 22.7478 37.8943 22.6717 38.0522L22.6703 38.0535Z" fill="#231F20"/>
<path d="M62.9468 39.2789C62.9066 39.4326 62.8609 39.535 62.8568 39.6375C62.8457 39.8978 62.8429 40.1595 62.8568 40.4184C62.872 40.7216 62.8305 41.0096 62.7045 41.2851C62.6975 41.299 62.674 41.3073 62.6712 41.3197C62.6338 41.6133 62.548 41.9123 62.5729 42.2017C62.6062 42.5963 62.4649 42.9466 62.3431 43.2859C62.2212 43.6223 62.0772 43.956 61.9388 44.2897C61.846 44.514 61.7325 44.7355 61.5359 44.9086C61.3476 45.0734 61.1786 45.2575 61.0374 45.479C60.784 45.8778 60.3437 46.0301 59.9131 46.1686C59.8259 46.1963 59.7221 46.1796 59.639 46.2143C59.4853 46.2779 59.3413 46.3624 59.1475 46.4635C58.775 46.4372 58.3652 46.5133 57.9567 46.6573C57.9678 46.6601 55.5711 46.073 55.5697 46.073C55.3315 45.8113 55.0269 45.6133 54.8165 45.3198C54.7888 45.281 54.7528 45.2423 54.7126 45.2174C54.4371 45.0374 54.1782 44.8477 54.0536 44.5209C53.947 44.2398 53.8417 43.9588 53.6922 43.6915C53.5994 43.5254 53.6077 43.3052 53.5662 43.11C53.4817 42.7223 53.3973 42.3333 53.3156 41.9456C53.2491 41.6299 53.1467 41.3267 53.0857 41.0138C53.0622 40.8933 53.191 40.7133 53.1383 40.6344C53.0414 40.4876 53.0982 40.3533 53.0802 40.2162C53.0608 40.075 53.155 39.9379 53.1619 39.8161C53.1882 39.3398 53.3294 38.8759 53.2796 38.3913C53.2422 38.0341 53.2602 37.6769 53.4416 37.3363C53.5108 37.2075 53.4679 37.0206 53.4776 36.824C53.587 36.6772 53.7157 36.5028 53.8445 36.3269C53.9137 35.9974 54.0757 35.7025 54.2848 35.4394C54.4108 35.2802 54.5479 35.1362 54.6489 34.9548C54.7362 34.797 54.8677 34.6363 55.02 34.545C55.29 34.3844 55.5918 34.2764 55.8784 34.1448C55.9338 34.1199 55.9878 34.0922 56.0404 34.0645C56.0543 34.0576 56.0626 34.0396 56.0751 34.0313C56.1651 33.9731 56.2523 33.8707 56.3464 33.8651C56.8449 33.8347 57.2395 33.4179 57.7449 33.4678C58.3596 33.5273 58.9868 33.5494 59.5781 33.7571C60.0945 33.9385 60.6483 34.1268 61.0056 34.5297C61.3863 34.9576 61.9208 35.3176 61.9914 35.9697C62.2337 36.3062 62.3029 36.7215 62.5065 37.076C62.6685 37.3584 62.7709 37.6589 62.764 37.9981C62.7598 38.1961 62.8346 38.3941 62.8512 38.5935C62.8678 38.7873 62.8498 38.9839 62.8595 39.1792C62.8609 39.2152 62.9218 39.2484 62.9481 39.2775L62.9468 39.2789ZM59.2901 43.1252C59.3676 42.894 59.4285 42.7223 59.4839 42.5493C59.567 42.2903 59.6957 42.0328 59.7096 41.7697C59.7207 41.5593 59.7705 41.3599 59.8384 41.1827C59.9034 41.011 59.9048 40.8504 59.9242 40.6815C59.945 40.4987 59.9879 40.3187 60.0184 40.1359C60.0267 40.0888 60.0405 40.021 60.0156 39.9933C59.8577 39.8119 59.9062 39.5918 59.9284 39.3979C59.9768 38.977 59.8079 38.5824 59.8204 38.1698C59.8204 38.1297 59.7788 38.0895 59.7664 38.0466C59.6874 37.7669 59.5351 37.5232 59.3898 37.2754C59.3136 37.1466 59.2665 37.0026 59.2056 36.8655C58.811 36.3532 58.2669 36.1497 57.7643 36.1899C57.1121 36.3975 56.748 36.7478 56.5001 37.3031V37.616C56.2495 37.8694 56.1872 38.203 56.1111 38.5284C56.0294 38.8829 55.9837 39.2429 56.0072 39.6098C56.01 39.6624 55.9574 39.7178 55.9435 39.7427C56.0003 40.0085 56.0834 40.2578 56.1027 40.5125C56.1318 40.9058 56.1055 41.299 56.1927 41.6936C56.2371 41.8957 56.3077 42.0702 56.4115 42.2599C56.2883 42.9217 56.7037 43.3329 57.162 43.6846C57.3766 43.9615 57.6923 43.758 57.9581 43.9075C58.2461 44.0695 58.4953 43.7082 58.7958 43.7248C58.9758 43.506 59.1544 43.2886 59.2901 43.1239V43.1252Z" fill="#231F20"/>
</svg>
