<svg width="24" height="18" viewBox="0 0 24 18" fill="none" xmlns="http://www.w3.org/2000/svg">
<path d="M3.32812 3.70312V13.7344C3.375 14.0625 3.28125 14.4375 3.04688 14.7188L0.65625 17.5781V17.9531H7.40625V17.5781L5.01562 14.7188C4.73438 14.4375 4.64062 14.0625 4.6875 13.7344V5.0625L10.5938 18H11.2969L16.4062 5.0625V15.3281C16.4062 15.6094 16.4062 15.6562 16.2188 15.8438L14.3906 17.625V18H23.2969V17.625L21.5156 15.8906C21.375 15.7969 21.2812 15.5625 21.3281 15.375V2.625C21.2812 2.4375 21.375 2.25 21.5156 2.15625L23.2969 0.421875V0H17.0625L12.5625 11.1562L7.5 0H0.9375V0.421875L3.04688 2.95312C3.23438 3.14062 3.375 3.42188 3.32812 3.70312Z" fill="white"/>
</svg>
