<svg width="21" height="24" viewBox="0 0 21 24" fill="none" xmlns="http://www.w3.org/2000/svg">
<path d="M21 9.84375V5.76562C20.9531 5.76562 20.9531 5.76562 20.9531 5.76562C19.8281 5.76562 18.75 5.4375 17.8594 4.82812C16.5469 3.98438 15.6094 2.625 15.3281 1.07812C15.2344 0.75 15.2344 0.421875 15.2344 0.09375C15.2344 0.046875 15.2344 0.046875 15.2344 0H11.1094V16.4062C11.1094 18.3281 9.51562 19.9219 7.59375 19.9219C5.67188 19.9219 4.07812 18.3281 4.07812 16.4062C4.07812 14.4844 5.67188 12.8906 7.59375 12.8906C7.96875 12.8906 8.29688 12.9375 8.67188 13.0781V8.85938C8.29688 8.8125 7.96875 8.76562 7.59375 8.76562C3.375 8.76562 0 12.1875 0 16.4062C0 20.625 3.375 24 7.59375 24C11.8125 24 15.2344 20.625 15.2344 16.4062V8.01562C16.8281 9.1875 18.7969 9.84375 20.9531 9.84375H21Z" fill="white"/>
</svg>
